<?xml version="1.0" encoding="UTF-8"?>
<svg version="1.1" xmlns="http://www.w3.org/2000/svg" width="512" height="512">
<path d="M0 0 C2.79791537 -0.00323401 5.59580471 -0.01241626 8.39370728 -0.02124023 C15.16037472 -0.03889273 21.92686325 -0.0352452 28.69353729 -0.02358967 C34.20064974 -0.01450203 39.70771257 -0.01335419 45.2148304 -0.01768494 C46.00301031 -0.01829787 46.79119022 -0.0189108 47.60325437 -0.01954231 C49.20516961 -0.0208214 50.80708483 -0.02211826 52.40900005 -0.02343267 C67.3798765 -0.03479979 82.35065449 -0.02178622 97.32151479 -0.00023121 C110.12438595 0.01763276 122.92711194 0.01453393 135.72998047 -0.00390625 C150.65107975 -0.02538775 165.57209302 -0.03369786 180.49320561 -0.0214572 C182.08905318 -0.0201832 183.68490077 -0.01892571 185.28074837 -0.01768494 C186.45806932 -0.01675928 186.45806932 -0.01675928 187.65917454 -0.01581493 C193.14933972 -0.01238352 198.63944964 -0.01814233 204.12960625 -0.02760315 C210.83519031 -0.03890605 217.54058747 -0.03561139 224.24615055 -0.01448017 C227.65746 -0.00407898 231.06820692 -0.00186712 234.47955132 -0.01307678 C273.29630922 -0.12878116 306.51707925 10.13336924 334.78735352 37.46289062 C351.36817732 53.96523152 363.21173111 74.79528569 368.81469727 97.51757812 C369.18934663 98.98973974 369.18934663 98.98973974 369.57156467 100.491642 C372.55811418 113.99932649 372.24431433 127.49610484 372.21875 141.27050781 C372.2228226 144.05812453 372.23132872 146.84572414 372.23954773 149.6333313 C372.2566423 156.38634131 372.25759519 163.13925788 372.25233483 169.89228389 C372.2482738 175.38849798 372.24975948 180.88468471 372.25508308 186.38089752 C372.25583151 187.16670854 372.25657993 187.95251956 372.25735103 188.76214303 C372.2588827 190.35914587 372.26042105 191.9561487 372.261966 193.55315152 C372.27565764 208.49108882 372.27027725 223.42897358 372.25878078 238.36690965 C372.24885533 251.99033775 372.26178312 265.6136299 372.28571498 279.23703703 C372.31018208 293.27240824 372.31969502 307.30771633 372.31306225 321.34310842 C372.30958643 329.20410825 372.31169271 337.0650037 372.32931328 344.92598724 C372.34413107 351.61882584 372.3445473 358.31148656 372.32724237 365.00432202 C372.31880703 368.40954255 372.31861737 371.81418989 372.33189392 375.21943283 C372.47151571 414.01998106 362.18414858 447.23522567 334.86938477 475.49023438 C318.367123 492.07097868 297.53695959 503.91479678 274.81469727 509.51757812 C273.83376885 509.76716026 272.85284044 510.0167424 271.84218693 510.27388763 C258.32108726 513.26277303 244.805758 512.95471804 231.01757812 512.9375 C228.22497536 512.94322226 225.43239199 512.95334863 222.63980103 512.96316528 C215.87375927 512.98409377 209.10780342 512.98876735 202.34173309 512.9869774 C196.83314871 512.9856631 191.32459083 512.9895077 185.81601143 512.99690247 C168.44273004 513.01977685 151.06953023 513.02531949 133.69623674 513.01738816 C120.04571095 513.0118194 106.39537322 513.03261859 92.74489134 513.06574863 C78.67673328 513.09962314 64.60866494 513.11463673 50.54046541 513.1100316 C42.66313207 513.10780037 34.78597237 513.11283045 26.90867424 513.13792419 C20.19979304 513.15911645 13.49118063 513.16235464 6.78228771 513.1436246 C3.37051038 513.13457422 -0.04036613 513.13578761 -3.4521656 513.15398026 C-43.56695089 513.3529314 -76.31791157 501.66228078 -105.18530273 473.51757812 C-121.10116366 457.6534761 -131.78770208 437.25137119 -137.18530273 415.51757812 C-137.43280305 414.61575145 -137.68030336 413.71392477 -137.93530369 412.78477001 C-140.94670601 400.23997424 -140.62197325 387.6421074 -140.59213579 374.80593669 C-140.58735794 371.33541416 -140.59995444 367.86494459 -140.6101532 364.3944397 C-140.62725858 357.61388713 -140.62819829 350.83342757 -140.62294029 344.05285905 C-140.61888094 338.53421451 -140.62036299 333.01559722 -140.62568855 327.49695396 C-140.62643697 326.7082321 -140.6271854 325.91951023 -140.6279565 325.10688769 C-140.62948816 323.50400632 -140.63102651 321.90112496 -140.63257147 320.2982436 C-140.64626728 305.30069918 -140.64087999 290.30320705 -140.62938625 275.30566385 C-140.61946264 261.62720689 -140.63238466 247.94888539 -140.65632045 234.27044932 C-140.68078734 220.18086922 -140.6903004 206.09135201 -140.68366772 192.00175112 C-140.68019156 184.10943742 -140.68230034 176.21722768 -140.69991875 168.32493019 C-140.71473635 161.60461924 -140.71515311 154.88448546 -140.69784784 148.16417763 C-140.68941193 144.74478795 -140.68922385 141.32596911 -140.70249939 137.90655708 C-140.84649861 97.71993349 -129.68941045 64.35851429 -101.18530273 35.51757812 C-86.28044847 20.82081956 -67.30405971 10.09120041 -47.18530273 4.51757812 C-46.22394167 4.24919805 -46.22394167 4.24919805 -45.24315917 3.97539616 C-30.23026831 -0.05463716 -15.45496283 -0.05074323 0 0 Z M-20.18530273 134.51757812 C-36.20150618 154.02938152 -42.51136812 177.32712824 -42.45996094 202.22387695 C-42.46507187 203.52656021 -42.4701828 204.82924347 -42.47544861 206.17140198 C-42.48869394 209.70468091 -42.48943359 213.23785195 -42.48688531 216.77115083 C-42.48580554 219.74027075 -42.49072445 222.70936972 -42.49549073 225.6784851 C-42.5065362 232.6939576 -42.50705163 239.70937655 -42.50097656 246.72485352 C-42.49494264 253.91793831 -42.50724441 261.11082721 -42.52854663 268.30387861 C-42.54626643 274.52006312 -42.55214772 280.73618588 -42.54890889 286.95239466 C-42.54711212 290.64718416 -42.54956875 294.34183393 -42.56362343 298.03660011 C-42.67168846 329.12180879 -38.97518593 357.73710201 -17.18530273 381.51757812 C-15.95360352 382.88849609 -15.95360352 382.88849609 -14.69702148 384.28710938 C1.91348234 401.88193935 26.1579835 413.71810137 50.5458889 414.61840248 C53.92572127 414.66891438 57.3043656 414.68704207 60.68457031 414.69458008 C62.61301285 414.70443687 62.61301285 414.70443687 64.58041382 414.7144928 C68.82906877 414.73542682 73.0777236 414.74589299 77.32641602 414.75585938 C78.799157 414.75991249 80.27189781 414.76402957 81.74463844 414.76820946 C88.67514119 414.7872467 95.60563347 414.80147442 102.53615731 414.80982143 C110.48245492 414.81955435 118.42847106 414.84577591 126.37466973 414.88632232 C132.54917216 414.91672364 138.72359509 414.93131321 144.89817077 414.93460244 C148.56977588 414.93692794 152.24107997 414.94555314 155.91260338 414.97106361 C191.80409267 415.20749377 221.36871926 408.46328633 247.56079102 382.83007812 C269.95849444 359.37555764 275.14261321 330.50183747 275.11547852 299.42382812 C275.11937731 297.53771879 275.12371436 295.65161032 275.12846375 293.76550293 C275.13586043 289.84591803 275.13567982 285.92642336 275.13037109 282.00683594 C275.12454053 276.99930103 275.1416252 271.9921317 275.16471577 266.98465729 C275.17947076 263.10349392 275.18032316 259.22241874 275.17720604 255.3412323 C275.17771689 253.49455533 275.18291003 251.64787313 275.19301796 249.80122375 C275.20541982 247.22270931 275.19857201 244.64491009 275.18701172 242.06640625 C275.19465546 241.31614166 275.20229919 240.56587708 275.21017456 239.7928772 C275.15457301 234.15297163 274.33198906 228.23600452 270.36278248 223.94965363 C265.88892411 220.14526826 263.17035135 219.37755583 257.40844727 219.08789062 C256.10649414 219.01441406 254.80454102 218.9409375 253.46313477 218.86523438 C251.40116399 218.75273668 249.33921248 218.64377041 247.27661133 218.54345703 C227.40696752 217.55719142 227.40696752 217.55719142 221.37719727 212.45507812 C216.3537547 203.01100609 215.54920827 192.07247694 214.16333008 181.62084961 C210.65437863 155.47300524 197.27545156 134.33795044 176.68579102 118.04101562 C161.42348288 107.14204221 144.8184705 98.40879412 125.66992188 98.34057617 C124.86251053 98.33400497 124.05509918 98.32743378 123.22322083 98.32066345 C120.55449307 98.30098346 117.88582187 98.28927055 115.21704102 98.27929688 C114.29778902 98.27522135 113.37853703 98.27114582 112.43142891 98.26694679 C107.55194451 98.24609394 102.67248804 98.23179704 97.79296875 98.22241211 C92.8075357 98.21143741 87.82256012 98.17714051 82.83728695 98.13724041 C78.95991832 98.11078142 75.08265301 98.10269399 71.2052021 98.09913063 C69.37121099 98.09432818 67.53722241 98.08290148 65.70332146 98.06409264 C31.58658922 97.7363485 3.09792399 109.00663526 -20.18530273 134.51757812 Z " fill="#000000" transform="translate(140.185302734375,-0.517578125)"/>
<path d="M0 0 C1.01908951 -0.0071553 2.03817902 -0.01431061 3.08815002 -0.02168274 C4.20558594 -0.02437164 5.32302185 -0.02706055 6.47431946 -0.02983093 C7.6518428 -0.03640213 8.82936615 -0.04297333 10.04257202 -0.04974365 C13.94860689 -0.06949211 17.85462831 -0.08114582 21.76069641 -0.09111023 C23.10739983 -0.09515896 24.45410304 -0.09927592 25.80080605 -0.10346031 C32.1300855 -0.12250934 38.45935333 -0.13673948 44.78865594 -0.14507228 C52.08367833 -0.15483606 59.3783966 -0.18113392 66.67331189 -0.22157317 C72.31846387 -0.25178779 77.96352894 -0.2665463 83.60876018 -0.26985329 C86.97712094 -0.27219823 90.34515672 -0.28108488 93.7134304 -0.30631447 C97.47642062 -0.33066335 101.23861832 -0.3297479 105.00166321 -0.32279968 C106.10897797 -0.33560974 107.21629272 -0.3484198 108.35716248 -0.36161804 C115.44798312 -0.31396231 121.23663502 0.59135203 126.58028698 5.55915356 C131.70819565 11.32730574 132.52087429 16.66599239 132.37397766 24.13935852 C131.77431331 29.91112788 129.48903186 34.10040507 125.24897766 38.02217102 C118.33795129 42.62952194 111.53021542 42.44040471 103.46992493 42.42182922 C102.32107819 42.42694016 101.17223145 42.43205109 99.98857117 42.43731689 C96.20162201 42.45118486 92.4148554 42.45025828 88.62788391 42.44795227 C85.9890435 42.45184051 83.35020372 42.45617545 80.71136475 42.4609375 C75.18441659 42.46913665 69.65751959 42.46825153 64.13056946 42.46284485 C57.75655067 42.4568051 51.38275262 42.46912116 45.00877148 42.49041492 C38.85835131 42.51020052 32.70803387 42.51319936 26.55758476 42.50967979 C23.94894327 42.51019258 21.34029821 42.51542238 18.7316761 42.52549171 C15.08175352 42.53785253 11.43233961 42.53106606 7.78242493 42.51948547 C6.70944656 42.52712921 5.6364682 42.53477295 4.53097534 42.54264832 C-2.86719725 42.49086735 -8.72046223 41.70699156 -14.68852234 36.95967102 C-19.53704564 30.89901689 -21.7188778 25.77656732 -21.37992859 17.89326477 C-20.49646795 12.39704506 -18.27559859 8.04775054 -13.93070984 4.51435852 C-9.33552366 1.54698737 -5.51566956 0.02658854 0 0 Z " fill="#000000" transform="translate(199.9385223388672,291.8528289794922)"/>
<path d="M0 0 C1.33607108 -0.00389466 2.67214093 -0.0082309 4.00820923 -0.01298523 C6.80043562 -0.02041874 9.59253552 -0.02017738 12.38476562 -0.01489258 C15.94082254 -0.00910509 19.49635739 -0.0260249 23.05232811 -0.04923725 C25.80979374 -0.06406 28.56713613 -0.06483473 31.32463455 -0.06172752 C33.26595611 -0.06248191 35.20725872 -0.07628497 37.14852905 -0.09040833 C45.35825651 -0.04772302 52.84214306 0.54173411 59.6640625 5.48828125 C63.48983935 9.58732787 65.17381212 13.19382309 65.3828125 18.828125 C65.05229301 24.32301153 64.01972237 28.07924508 60.2890625 32.30078125 C54.66182723 37.11664771 50.50969152 38.41600333 43.08691406 38.46191406 C41.83170959 38.47152161 40.57650513 38.48112915 39.28326416 38.49102783 C37.91540713 38.49587698 36.54754798 38.50015552 35.1796875 38.50390625 C33.76967366 38.50966371 32.35965983 38.51542136 30.949646 38.5211792 C27.99409625 38.53167309 25.03857356 38.53752591 22.08300781 38.54101562 C18.31269841 38.54648924 14.54275215 38.57049944 10.7725563 38.59898758 C7.85901883 38.61769877 4.94556725 38.6228241 2.03197479 38.6243515 C0.64302338 38.62736076 -0.74592715 38.63533036 -2.13481903 38.64853668 C-18.46402222 38.79268937 -18.46402222 38.79268937 -25.5234375 32.98828125 C-29.87285442 27.64471189 -31.2435074 23.51104886 -30.98828125 16.69140625 C-30.29391394 10.70615566 -27.13089347 7.41559939 -22.8203125 3.59765625 C-15.85022958 -0.68765399 -7.89872168 -0.00566874 0 0 Z " fill="#000000" transform="translate(209.7109375,177.69921875)"/>
</svg>
