<svg xmlns="http://www.w3.org/2000/svg" version="1.1" xmlns:xlink="http://www.w3.org/1999/xlink" xmlns:svgjs="http://svgjs.dev/svgjs" width="256" height="256"><svg t="1735484263496" class="icon" viewBox="0 0 1024 1024" version="1.1" xmlns="http://www.w3.org/2000/svg" p-id="5463" width="256" height="256" xmlns:xlink="http://www.w3.org/1999/xlink"><path d="M865.468 0H158.532C71.118 0 0 71.118 0 158.532v68.54h1024v-68.54C1024 71.118 952.882 0 865.468 0zM158.532 143.532c-16.5 0-30-13.44-30-30 0-16.556 13.5-30 30-30s30 13.444 30 30c0 16.56-13.5 30-30 30z m128.53 0c-16.5 0-30-13.44-30-30 0-16.556 13.5-30 30-30s30 13.444 30 30c0 16.56-13.5 30-30 30z m128.54 0c-16.5 0-30-13.44-30-30 0-16.556 13.5-30 30-30s30 13.444 30 30c0 16.56-13.5 30-30 30z m0 0M0 865.468C0 952.882 71.118 1024 158.532 1024h706.936C952.882 1024 1024 952.882 1024 865.468V287.062H0z m683.586-396.522c-11.72-11.712-11.72-30.712 0-42.422 11.72-11.72 30.71-11.72 42.43 0l128.53 128.53c11.72 11.72 11.72 30.712 0 42.43l-128.53 128.532a29.914 29.914 0 0 1-21.22 8.788 29.91 29.91 0 0 1-21.21-8.788c-11.712-11.712-11.712-30.712 0-42.422l107.32-107.32zM420.898 691.38l128.54-257.07c7.406-14.812 25.43-20.82 40.24-13.414 14.822 7.406 20.83 25.43 13.424 40.25L474.56 718.22c-5.25 10.508-15.852 16.586-26.852 16.586-4.506 0-9.086-1.014-13.39-3.172-14.82-7.406-20.828-25.428-13.42-40.25zM169.454 555.054l128.53-128.54c11.72-11.71 30.712-11.71 42.43 0 11.712 11.72 11.712 30.712 0 42.432l-107.32 107.32 107.312 107.32c11.72 11.71 11.72 30.71 0 42.43a29.908 29.908 0 0 1-21.21 8.78 29.934 29.934 0 0 1-21.212-8.78l-128.53-128.54c-11.72-11.71-11.72-30.702 0-42.42z m0 0" p-id="5464" fill="#55bb8a"></path></svg><style>@media (prefers-color-scheme: light) { :root { filter: none; } }
@media (prefers-color-scheme: dark) { :root { filter: none; } }
</style></svg>