<svg aria-hidden="true" class="astro-oi3k447z astro-fnupebmr" width="16" height="16" viewBox="0 0 24 24" fill="currentColor" style="--sl-icon-size:1em"><path d="M16.45 17.77c2.77-.33 5.18-2.03 5.49-3.58.47-2.45.44-5.97.44-5.97 0-4.77-3.15-6.17-3.15-6.17-1.58-.72-4.3-1.03-7.13-1.05h-.07c-2.83.02-5.55.33-7.13 1.05 0 0-3.14 1.4-3.14 6.17v.91c-.01.88-.02 1.86 0 2.88.12 4.67.87 9.27 5.2 10.4 2 .53 3.72.64 5.1.57 2.51-.14 3.92-.9 3.92-.9l-.08-1.8s-1.8.56-3.8.5c-2-.08-4.1-.22-4.43-2.66a5 5 0 0 1-.04-.68s1.96.48 4.44.59c1.51.07 2.94-.09 4.38-.26m2.22-3.4h-2.3v-5.6c0-1.19-.5-1.79-1.5-1.79-1.1 0-1.66.71-1.66 2.12v3.07h-2.3V9.1c0-1.4-.55-2.12-1.65-2.12-1 0-1.5.6-1.5 1.78v5.61h-2.3V8.6c0-1.18.3-2.12.9-2.81a3.17 3.17 0 0 1 2.47-1.05c1.18 0 2.07.45 2.66 1.35l.57.96.58-.96a2.97 2.97 0 0 1 2.66-1.35c1.01 0 1.83.36 2.46 1.05.6.7.9 1.63.9 2.81v5.78Z"/></svg>