<?xml version="1.0" encoding="UTF-8"?>
<svg version="1.1" xmlns="http://www.w3.org/2000/svg" width="192" height="192">
<path d="M0 0 C3.00688894 5.93963541 3.69608954 11.34177979 4.1875 17.9375 C4.26935547 18.90751953 4.35121094 19.87753906 4.43554688 20.87695312 C4.6343289 23.25064437 4.82219276 25.62466123 5 28 C5.44472656 27.44739502 5.88945313 26.89479004 6.34765625 26.32543945 C14.04547535 16.8816623 23.13973901 11.45619401 35.25 10.1875 C52.02847223 9.33990783 66.5442043 15.9281816 79 27 C77.57142347 30.36048572 75.83945402 32.27725861 73.0625 34.625 C72.37285156 35.21539062 71.68320313 35.80578125 70.97265625 36.4140625 C66.51231527 40 66.51231527 40 63 40 C65.14072087 42.2404439 67.37773754 44.10585029 69.875 45.9375 C70.93654297 46.73220703 70.93654297 46.73220703 72.01953125 47.54296875 C73.51262354 48.64143704 75.03176763 49.7046218 76.5625 50.75 C85.38293251 58.89193771 91.31307161 70.96233972 92.22290039 82.93261719 C92.69418001 96.38902442 92.92843253 109.30599574 88 122 C87.64591064 122.94262695 87.64591064 122.94262695 87.28466797 123.90429688 C80.91159931 140.6197342 71.5345144 154.34311237 59 167 C58.31292969 167.74765625 57.62585938 168.4953125 56.91796875 169.265625 C46.53510301 180.36982668 30.02632424 191.58846986 14.42089844 192.41992188 C12.81730988 192.45271 11.21329868 192.46835096 9.609375 192.46875 C8.74290344 192.47636353 7.87643188 192.48397705 6.98370361 192.49182129 C5.16185361 192.50255516 3.33994241 192.50550296 1.51806641 192.50097656 C-1.22991725 192.50000709 -3.97507627 192.54164551 -6.72265625 192.5859375 C-29.89026349 192.74378821 -46.66166934 182.04107768 -63.125 166.1875 C-84.11124363 144.63675298 -95.56884254 117.60854917 -95.20703125 87.65625 C-94.83726989 73.79133338 -89.82358432 61.66826767 -80.1875 51.5625 C-75.54530673 47.19713477 -70.57580414 44.02832665 -65 41 C-64.01 40.34 -63.02 39.68 -62 39 C-63.00417969 38.64808594 -64.00835937 38.29617187 -65.04296875 37.93359375 C-74.18297037 34.65872578 -82.59124351 30.8667118 -91 26 C-89.61372791 22.61864126 -88.30697426 21.25343345 -85.10546875 19.52734375 C-84.32115479 19.10372559 -83.53684082 18.68010742 -82.72875977 18.24365234 C-81.47083618 17.59710693 -81.47083618 17.59710693 -80.1875 16.9375 C-79.32890381 16.4935791 -78.47030762 16.0496582 -77.58569336 15.59228516 C-62.62751925 8.09850166 -47.99100637 6.99902953 -32 12 C-22.01886221 15.82441274 -13.40338784 22.46214955 -7 31 C-8.03259708 24.0338227 -10.05771577 18.12611519 -13.07421875 11.76171875 C-14.12613154 8.62373418 -14.09493359 7.09966708 -13 4 C-8.70151806 0.2132421 -5.65125964 -0.45210077 0 0 Z " fill="#EF6E4F" transform="translate(98,0)"/>
<path d="M0 0 C6.74504264 5.66158698 10.7959239 9.10951687 11.75 18.125 C10.73164062 17.9084375 9.71328125 17.691875 8.6640625 17.46875 C-5.93120539 14.52806864 -19.81513747 13.8747392 -34.41796875 17.14501953 C-42.75040669 18.93202101 -49.11326529 17.14598625 -56.6875 13.875 C-57.42669678 13.56361084 -58.16589355 13.25222168 -58.92749023 12.93139648 C-64.22847881 10.66170862 -69.33946447 8.16085815 -74.25 5.125 C-72.86372791 1.74364126 -71.55697426 0.37843345 -68.35546875 -1.34765625 C-67.57115479 -1.77127441 -66.78684082 -2.19489258 -65.97875977 -2.63134766 C-64.72083618 -3.27789307 -64.72083618 -3.27789307 -63.4375 -3.9375 C-62.57890381 -4.3814209 -61.72030762 -4.8253418 -60.83569336 -5.28271484 C-40.44927147 -15.49595549 -18.21852964 -14.03722775 0 0 Z " fill="#71BB6C" transform="translate(81.25,20.875)"/>
<path d="M0 0 C0.7425 0.680625 1.485 1.36125 2.25 2.0625 C-0.2967443 7.97458498 -5.48784467 11.52230913 -10.6875 15.0625 C-17.29956637 17.22154208 -23.72140844 14.96116378 -30.09765625 12.78125 C-42.25777066 9.48602017 -56.09182715 10.08149445 -68.11328125 13.40625 C-70.75 14.0625 -70.75 14.0625 -74.75 14.0625 C-75.58365778 8.64372444 -73.69806024 5.62076405 -70.65234375 1.37109375 C-63.36576959 -7.47154552 -55.15237452 -12.93900475 -43.8046875 -14.68359375 C-27.36875137 -16.04975212 -12.6370173 -10.46642374 0 0 Z " fill="#6CB665" transform="translate(174.75,24.9375)"/>
<path d="M0 0 C4.94570615 10.7515351 6.3570451 25.21760717 2.5 36.625 C2.005 37.73875 1.51 38.8525 1 40 C-0.65 40 -2.3 40 -4 40 C-5.59748611 35.45493996 -6.78078882 30.87259679 -7.875 26.1875 C-8.9915516 21.49776885 -10.19264859 17.16956483 -12.3125 12.8125 C-13.51981495 10.28242963 -13.99799912 9.04501979 -14.125 6.1875 C-11.10485151 0.31498904 -6.10442468 -0.48835397 0 0 Z " fill="#8E2E22" transform="translate(98,0)"/>
<path d="M0 0 C-4.75 4.875 -4.75 4.875 -7 6 C-7.33 6.99 -7.66 7.98 -8 9 C-9.92578125 10.1328125 -9.92578125 10.1328125 -12.3125 11.125 C-13.09238281 11.45757812 -13.87226563 11.79015625 -14.67578125 12.1328125 C-18.90929129 13.71237423 -21.1025379 14.22023444 -25.4296875 12.63671875 C-31.60317151 10.64501633 -37.68002829 10.22093135 -44.125 9.8125 C-45.27226563 9.73064453 -46.41953125 9.64878906 -47.6015625 9.56445312 C-50.40050529 9.36619468 -53.19972454 9.17825753 -56 9 C-44.85853323 -2.14146677 -14.50861148 -0.44313632 0 0 Z " fill="#82C27A" transform="translate(173,26)"/>
<path d="M0 0 C3.2925589 0.97618356 6.5838875 1.95645214 9.875 2.9375 C11.28072266 3.35418945 11.28072266 3.35418945 12.71484375 3.77929688 C13.61074219 4.04677734 14.50664062 4.31425781 15.4296875 4.58984375 C16.25710449 4.83597412 17.08452148 5.08210449 17.93701172 5.33569336 C20 6 20 6 22 7 C22 7.66 22 8.32 22 9 C23.010625 9.144375 24.02125 9.28875 25.0625 9.4375 C28.70833333 9.95833333 32.35416667 10.47916667 36 11 C36.495 12.485 36.495 12.485 37 14 C31.03177524 15.11283214 26.97670462 14.84639676 21.3125 12.5 C20.63058594 12.23171387 19.94867187 11.96342773 19.24609375 11.68701172 C12.54889097 8.97483132 6.24893408 5.6166776 0 2 C0 1.34 0 0.68 0 0 Z " fill="#448431" transform="translate(7,24)"/>
<path d="M0 0 C0.99 0.33 1.98 0.66 3 1 C-1.61342645 6.14745652 -6.42548705 10.55837834 -13 13 C-16.5625 12.8125 -16.5625 12.8125 -19 12 C-16.75540704 8.63311056 -15.98194038 8.39497477 -12.3125 7.125 C-8.81707726 5.82684444 -6.01545879 4.46531651 -3.0625 2.1875 C-2.051875 1.465625 -1.04125 0.74375 0 0 Z " fill="#406321" transform="translate(174,28)"/>
<path d="M0 0 C0.33 0.99 0.66 1.98 1 3 C-4.01989102 7.11888494 -7.59858988 7.51211281 -14 7 C-12.66035678 4.45467787 -11.57229129 2.42921847 -9.25 0.6875 C-6.13143415 -0.26539512 -3.23765175 -0.12452507 0 0 Z " fill="#B36356" transform="translate(98,0)"/>
<path d="M0 0 C1.32 0 2.64 0 4 0 C6.15721701 7.47321608 7.46530864 14.21038876 7 22 C4.32571041 19.32571041 3.94569115 16.88408823 2.9375 13.25 C2.59589844 12.03828125 2.25429687 10.8265625 1.90234375 9.578125 C1.09830954 6.38983349 0.48355181 3.25026575 0 0 Z " fill="#7A2D1D" transform="translate(86,9)"/>
<path d="M0 0 C4.96652615 -0.31040788 8.35071188 0.30687418 12.93359375 2.19921875 C16.21417513 3.47052155 19.57617971 4.20518458 23 5 C22.34 5.66 21.68 6.32 21 7 C13.45606582 6.85766162 6.89617076 3.84887542 0 1 C0 0.67 0 0.34 0 0 Z " fill="#425417" transform="translate(20,32)"/>
<path d="M0 0 C-9.1 7 -9.1 7 -12 7 C-10.1896099 1.56882971 -5.56166796 -0.65431388 0 0 Z " fill="#62B35E" transform="translate(177,27)"/>
<path d="M0 0 C-1.43429001 0.67354499 -2.87257057 1.33859701 -4.3125 2 C-5.51326172 2.556875 -5.51326172 2.556875 -6.73828125 3.125 C-9 4 -9 4 -12 4 C-11.67 3.01 -11.34 2.02 -11 1 C-9.2578125 0.234375 -9.2578125 0.234375 -7.125 -0.25 C-6.07699219 -0.50523438 -6.07699219 -0.50523438 -5.0078125 -0.765625 C-3 -1 -3 -1 0 0 Z " fill="#6BB163" transform="translate(165,35)"/>
<path d="M0 0 C0.99 0.33 1.98 0.66 3 1 C-0.07999946 4.67230705 -2.2482602 5.56802365 -7 6 C-4.74259377 3.66475218 -2.7194239 1.81294927 0 0 Z " fill="#3A7C2A" transform="translate(174,28)"/>
<path d="M0 0 C1.98 0.66 3.96 1.32 6 2 C6 2.66 6 3.32 6 4 C6.99 4 7.98 4 9 4 C9 4.66 9 5.32 9 6 C5.59687262 4.94124926 2.98646769 3.99097846 0 2 C0 1.34 0 0.68 0 0 Z " fill="#424E18" transform="translate(7,24)"/>
<path d="M0 0 C0.66 0 1.32 0 2 0 C1 3 1 3 -0.5625 4.1875 C-4.11122383 5.37040794 -7.26701621 5.12443279 -11 5 C-11 4.67 -11 4.34 -11 4 C-10.37351562 3.87882813 -9.74703125 3.75765625 -9.1015625 3.6328125 C-8.28429687 3.46523437 -7.46703125 3.29765625 -6.625 3.125 C-5.81289062 2.96257813 -5.00078125 2.80015625 -4.1640625 2.6328125 C-1.81326077 2.13341068 -1.81326077 2.13341068 0 0 Z " fill="#994238" transform="translate(97,3)"/>
</svg>
