<?xml version="1.0" encoding="UTF-8"?>
<svg xmlns="http://www.w3.org/2000/svg" width="800" height="360" viewBox="0 0 800 360" role="img" aria-label="Star history of nicejade/wealth-tracker">
  <defs>
    <linearGradient id="area-dark" x1="0" y1="0" x2="0" y2="1">
      <stop offset="0%" stop-color="#f59e0b" stop-opacity="0.28"/>
      <stop offset="100%" stop-color="#f59e0b" stop-opacity="0"/>
    </linearGradient>
  </defs>
  <line x1="52" y1="324" x2="764" y2="324" stroke="rgba(255,255,255,0.12)" stroke-width="1" /><text x="42" y="327.5" text-anchor="end" font-size="11" fill="#a1a1aa" font-family="ui-sans-serif, system-ui, -apple-system, BlinkMacSystemFont, 'Segoe UI', sans-serif">0</text><line x1="52" y1="249" x2="764" y2="249" stroke="rgba(255,255,255,0.12)" stroke-width="1" stroke-dasharray="3 3" /><text x="42" y="252.5" text-anchor="end" font-size="11" fill="#a1a1aa" font-family="ui-sans-serif, system-ui, -apple-system, BlinkMacSystemFont, 'Segoe UI', sans-serif">250</text><line x1="52" y1="174" x2="764" y2="174" stroke="rgba(255,255,255,0.12)" stroke-width="1" stroke-dasharray="3 3" /><text x="42" y="177.5" text-anchor="end" font-size="11" fill="#a1a1aa" font-family="ui-sans-serif, system-ui, -apple-system, BlinkMacSystemFont, 'Segoe UI', sans-serif">500</text><line x1="52" y1="99" x2="764" y2="99" stroke="rgba(255,255,255,0.12)" stroke-width="1" stroke-dasharray="3 3" /><text x="42" y="102.5" text-anchor="end" font-size="11" fill="#a1a1aa" font-family="ui-sans-serif, system-ui, -apple-system, BlinkMacSystemFont, 'Segoe UI', sans-serif">750</text><line x1="52" y1="24" x2="764" y2="24" stroke="rgba(255,255,255,0.12)" stroke-width="1" stroke-dasharray="3 3" /><text x="42" y="27.5" text-anchor="end" font-size="11" fill="#a1a1aa" font-family="ui-sans-serif, system-ui, -apple-system, BlinkMacSystemFont, 'Segoe UI', sans-serif">1k</text>
  <polygon fill="url(#area-dark)" points="52,324 52,323.7 162.48,318.3 217.12,312.9 233.75,307.5 233.78,302.1 233.82,296.7 233.91,291.3 233.98,285.9 234.1,280.5 234.68,275.1 234.82,269.7 235.08,264.3 236,258.9 236.48,253.5 236.74,248.1 237.81,242.7 240.13,237.3 241.89,231.9 245.53,226.5 249.35,221.1 255.81,215.7 271.07,210.3 297.36,204.9 366.87,199.5 375.09,194.1 375.19,188.7 375.35,183.3 375.61,177.9 375.84,172.5 376.22,167.1 377.47,161.7 378.42,156.3 380.37,150.9 383,145.5 386.02,140.1 392.43,134.7 400.37,129.3 410.58,123.9 435.66,118.5 438.29,113.1 445.99,107.7 461.63,102.3 482.93,96.9 535.26,91.5 580.37,86.1 619.85,80.7 630.13,75.3 630.35,69.9 646.36,64.5 711.84,59.1 742.39,53.7 752.11,52.5 764,52.5 764,324"/>
  <polyline fill="none" stroke="#f59e0b" stroke-width="2.5" stroke-linecap="round" stroke-linejoin="round" points="52,323.7 162.48,318.3 217.12,312.9 233.75,307.5 233.78,302.1 233.82,296.7 233.91,291.3 233.98,285.9 234.1,280.5 234.68,275.1 234.82,269.7 235.08,264.3 236,258.9 236.48,253.5 236.74,248.1 237.81,242.7 240.13,237.3 241.89,231.9 245.53,226.5 249.35,221.1 255.81,215.7 271.07,210.3 297.36,204.9 366.87,199.5 375.09,194.1 375.19,188.7 375.35,183.3 375.61,177.9 375.84,172.5 376.22,167.1 377.47,161.7 378.42,156.3 380.37,150.9 383,145.5 386.02,140.1 392.43,134.7 400.37,129.3 410.58,123.9 435.66,118.5 438.29,113.1 445.99,107.7 461.63,102.3 482.93,96.9 535.26,91.5 580.37,86.1 619.85,80.7 630.13,75.3 630.35,69.9 646.36,64.5 711.84,59.1 742.39,53.7 752.11,52.5 764,52.5"/>
  <circle cx="764" cy="52.5" r="4" fill="#f59e0b" />
  <text x="52" y="346" text-anchor="start" font-size="10" fill="#a1a1aa" font-family="ui-sans-serif, system-ui, -apple-system, BlinkMacSystemFont, 'Segoe UI', sans-serif">24-07-21</text><text x="194.4" y="346" text-anchor="middle" font-size="10" fill="#a1a1aa" font-family="ui-sans-serif, system-ui, -apple-system, BlinkMacSystemFont, 'Segoe UI', sans-serif">24-12-25</text><text x="336.8" y="346" text-anchor="middle" font-size="10" fill="#a1a1aa" font-family="ui-sans-serif, system-ui, -apple-system, BlinkMacSystemFont, 'Segoe UI', sans-serif">25-06-01</text><text x="479.2" y="346" text-anchor="middle" font-size="10" fill="#a1a1aa" font-family="ui-sans-serif, system-ui, -apple-system, BlinkMacSystemFont, 'Segoe UI', sans-serif">25-11-05</text><text x="621.6" y="346" text-anchor="middle" font-size="10" fill="#a1a1aa" font-family="ui-sans-serif, system-ui, -apple-system, BlinkMacSystemFont, 'Segoe UI', sans-serif">26-04-11</text><text x="764" y="346" text-anchor="end" font-size="10" fill="#a1a1aa" font-family="ui-sans-serif, system-ui, -apple-system, BlinkMacSystemFont, 'Segoe UI', sans-serif">26-09-16</text>
</svg>
