<?xml version="1.0" encoding="UTF-8"?>
<svg xmlns="http://www.w3.org/2000/svg" width="800" height="360" viewBox="0 0 800 360" role="img" aria-label="Star history of nicejade/wealth-tracker">
  <defs>
    <linearGradient id="area-dark" x1="0" y1="0" x2="0" y2="1">
      <stop offset="0%" stop-color="#f59e0b" stop-opacity="0.28"/>
      <stop offset="100%" stop-color="#f59e0b" stop-opacity="0"/>
    </linearGradient>
  </defs>
  <line x1="52" y1="324" x2="764" y2="324" stroke="rgba(255,255,255,0.12)" stroke-width="1" /><text x="42" y="327.5" text-anchor="end" font-size="11" fill="#a1a1aa" font-family="ui-sans-serif, system-ui, -apple-system, BlinkMacSystemFont, 'Segoe UI', sans-serif">0</text><line x1="52" y1="249" x2="764" y2="249" stroke="rgba(255,255,255,0.12)" stroke-width="1" stroke-dasharray="3 3" /><text x="42" y="252.5" text-anchor="end" font-size="11" fill="#a1a1aa" font-family="ui-sans-serif, system-ui, -apple-system, BlinkMacSystemFont, 'Segoe UI', sans-serif">250</text><line x1="52" y1="174" x2="764" y2="174" stroke="rgba(255,255,255,0.12)" stroke-width="1" stroke-dasharray="3 3" /><text x="42" y="177.5" text-anchor="end" font-size="11" fill="#a1a1aa" font-family="ui-sans-serif, system-ui, -apple-system, BlinkMacSystemFont, 'Segoe UI', sans-serif">500</text><line x1="52" y1="99" x2="764" y2="99" stroke="rgba(255,255,255,0.12)" stroke-width="1" stroke-dasharray="3 3" /><text x="42" y="102.5" text-anchor="end" font-size="11" fill="#a1a1aa" font-family="ui-sans-serif, system-ui, -apple-system, BlinkMacSystemFont, 'Segoe UI', sans-serif">750</text><line x1="52" y1="24" x2="764" y2="24" stroke="rgba(255,255,255,0.12)" stroke-width="1" stroke-dasharray="3 3" /><text x="42" y="27.5" text-anchor="end" font-size="11" fill="#a1a1aa" font-family="ui-sans-serif, system-ui, -apple-system, BlinkMacSystemFont, 'Segoe UI', sans-serif">1k</text>
  <polygon fill="url(#area-dark)" points="52,324 52,323.7 159.44,318.3 212.59,312.9 228.76,307.5 228.79,302.1 228.83,296.7 228.92,291.3 228.98,285.9 229.11,280.5 229.66,275.1 229.8,269.7 230.06,264.3 230.95,258.9 231.42,253.5 231.67,248.1 232.71,242.7 234.97,237.3 236.67,231.9 240.22,226.5 243.93,221.1 250.21,215.7 265.06,210.3 290.62,204.9 358.22,199.5 366.22,194.1 366.31,188.7 366.47,183.3 366.73,177.9 366.94,172.5 367.32,167.1 368.53,161.7 369.46,156.3 371.35,150.9 373.91,145.5 376.85,140.1 383.08,134.7 390.81,129.3 400.74,123.9 425.13,118.5 427.68,113.1 435.18,107.7 450.39,102.3 471.1,96.9 522,91.5 565.86,86.1 604.26,80.7 614.26,75.3 614.47,69.9 630.04,64.5 693.73,59.1 723.43,53.7 764,50.7 764,50.7 764,324"/>
  <polyline fill="none" stroke="#f59e0b" stroke-width="2.5" stroke-linecap="round" stroke-linejoin="round" points="52,323.7 159.44,318.3 212.59,312.9 228.76,307.5 228.79,302.1 228.83,296.7 228.92,291.3 228.98,285.9 229.11,280.5 229.66,275.1 229.8,269.7 230.06,264.3 230.95,258.9 231.42,253.5 231.67,248.1 232.71,242.7 234.97,237.3 236.67,231.9 240.22,226.5 243.93,221.1 250.21,215.7 265.06,210.3 290.62,204.9 358.22,199.5 366.22,194.1 366.31,188.7 366.47,183.3 366.73,177.9 366.94,172.5 367.32,167.1 368.53,161.7 369.46,156.3 371.35,150.9 373.91,145.5 376.85,140.1 383.08,134.7 390.81,129.3 400.74,123.9 425.13,118.5 427.68,113.1 435.18,107.7 450.39,102.3 471.1,96.9 522,91.5 565.86,86.1 604.26,80.7 614.26,75.3 614.47,69.9 630.04,64.5 693.73,59.1 723.43,53.7 764,50.7 764,50.7"/>
  <circle cx="764" cy="50.7" r="4" fill="#f59e0b" />
  <text x="52" y="346" text-anchor="start" font-size="10" fill="#a1a1aa" font-family="ui-sans-serif, system-ui, -apple-system, BlinkMacSystemFont, 'Segoe UI', sans-serif">24-07-21</text><text x="194.4" y="346" text-anchor="middle" font-size="10" fill="#a1a1aa" font-family="ui-sans-serif, system-ui, -apple-system, BlinkMacSystemFont, 'Segoe UI', sans-serif">24-12-30</text><text x="336.8" y="346" text-anchor="middle" font-size="10" fill="#a1a1aa" font-family="ui-sans-serif, system-ui, -apple-system, BlinkMacSystemFont, 'Segoe UI', sans-serif">25-06-09</text><text x="479.2" y="346" text-anchor="middle" font-size="10" fill="#a1a1aa" font-family="ui-sans-serif, system-ui, -apple-system, BlinkMacSystemFont, 'Segoe UI', sans-serif">25-11-18</text><text x="621.6" y="346" text-anchor="middle" font-size="10" fill="#a1a1aa" font-family="ui-sans-serif, system-ui, -apple-system, BlinkMacSystemFont, 'Segoe UI', sans-serif">26-04-29</text><text x="764" y="346" text-anchor="end" font-size="10" fill="#a1a1aa" font-family="ui-sans-serif, system-ui, -apple-system, BlinkMacSystemFont, 'Segoe UI', sans-serif">26-10-08</text>
</svg>
