<?xml version="1.0" encoding="UTF-8"?>
<svg xmlns="http://www.w3.org/2000/svg" width="800" height="360" viewBox="0 0 800 360" role="img" aria-label="Star history of nicejade/wealth-tracker">
  <defs>
    <linearGradient id="area-light" x1="0" y1="0" x2="0" y2="1">
      <stop offset="0%" stop-color="#f59e0b" stop-opacity="0.22"/>
      <stop offset="100%" stop-color="#f59e0b" stop-opacity="0"/>
    </linearGradient>
  </defs>
  <line x1="52" y1="324" x2="764" y2="324" stroke="rgba(0,0,0,0.08)" stroke-width="1" /><text x="42" y="327.5" text-anchor="end" font-size="11" fill="#636366" font-family="ui-sans-serif, system-ui, -apple-system, BlinkMacSystemFont, 'Segoe UI', sans-serif">0</text><line x1="52" y1="249" x2="764" y2="249" stroke="rgba(0,0,0,0.08)" stroke-width="1" stroke-dasharray="3 3" /><text x="42" y="252.5" text-anchor="end" font-size="11" fill="#636366" font-family="ui-sans-serif, system-ui, -apple-system, BlinkMacSystemFont, 'Segoe UI', sans-serif">250</text><line x1="52" y1="174" x2="764" y2="174" stroke="rgba(0,0,0,0.08)" stroke-width="1" stroke-dasharray="3 3" /><text x="42" y="177.5" text-anchor="end" font-size="11" fill="#636366" font-family="ui-sans-serif, system-ui, -apple-system, BlinkMacSystemFont, 'Segoe UI', sans-serif">500</text><line x1="52" y1="99" x2="764" y2="99" stroke="rgba(0,0,0,0.08)" stroke-width="1" stroke-dasharray="3 3" /><text x="42" y="102.5" text-anchor="end" font-size="11" fill="#636366" font-family="ui-sans-serif, system-ui, -apple-system, BlinkMacSystemFont, 'Segoe UI', sans-serif">750</text><line x1="52" y1="24" x2="764" y2="24" stroke="rgba(0,0,0,0.08)" stroke-width="1" stroke-dasharray="3 3" /><text x="42" y="27.5" text-anchor="end" font-size="11" fill="#636366" font-family="ui-sans-serif, system-ui, -apple-system, BlinkMacSystemFont, 'Segoe UI', sans-serif">1k</text>
  <polygon fill="url(#area-light)" points="52,324 52,323.7 167.64,318.3 224.84,312.9 242.24,307.5 242.28,302.1 242.31,296.7 242.41,291.3 242.48,285.9 242.61,280.5 243.21,275.1 243.36,269.7 243.64,264.3 244.6,258.9 245.1,253.5 245.37,248.1 246.49,242.7 248.92,237.3 250.76,231.9 254.57,226.5 258.57,221.1 265.33,215.7 281.31,210.3 308.82,204.9 381.58,199.5 390.19,194.1 390.29,188.7 390.45,183.3 390.73,177.9 390.97,172.5 391.37,167.1 392.67,161.7 393.67,156.3 395.71,150.9 398.46,145.5 401.62,140.1 408.33,134.7 416.65,129.3 427.33,123.9 453.59,118.5 456.33,113.1 464.4,107.7 480.77,102.3 503.06,96.9 557.84,91.5 605.05,86.1 646.38,80.7 657.14,75.3 657.37,69.9 674.12,64.5 742.67,59.1 763.5,54.9 764,54.9 764,324"/>
  <polyline fill="none" stroke="#f59e0b" stroke-width="2.5" stroke-linecap="round" stroke-linejoin="round" points="52,323.7 167.64,318.3 224.84,312.9 242.24,307.5 242.28,302.1 242.31,296.7 242.41,291.3 242.48,285.9 242.61,280.5 243.21,275.1 243.36,269.7 243.64,264.3 244.6,258.9 245.1,253.5 245.37,248.1 246.49,242.7 248.92,237.3 250.76,231.9 254.57,226.5 258.57,221.1 265.33,215.7 281.31,210.3 308.82,204.9 381.58,199.5 390.19,194.1 390.29,188.7 390.45,183.3 390.73,177.9 390.97,172.5 391.37,167.1 392.67,161.7 393.67,156.3 395.71,150.9 398.46,145.5 401.62,140.1 408.33,134.7 416.65,129.3 427.33,123.9 453.59,118.5 456.33,113.1 464.4,107.7 480.77,102.3 503.06,96.9 557.84,91.5 605.05,86.1 646.38,80.7 657.14,75.3 657.37,69.9 674.12,64.5 742.67,59.1 763.5,54.9 764,54.9"/>
  <circle cx="764" cy="54.9" r="4" fill="#f59e0b" />
  <text x="52" y="346" text-anchor="start" font-size="10" fill="#636366" font-family="ui-sans-serif, system-ui, -apple-system, BlinkMacSystemFont, 'Segoe UI', sans-serif">24-07-21</text><text x="194.4" y="346" text-anchor="middle" font-size="10" fill="#636366" font-family="ui-sans-serif, system-ui, -apple-system, BlinkMacSystemFont, 'Segoe UI', sans-serif">24-12-18</text><text x="336.8" y="346" text-anchor="middle" font-size="10" fill="#636366" font-family="ui-sans-serif, system-ui, -apple-system, BlinkMacSystemFont, 'Segoe UI', sans-serif">25-05-17</text><text x="479.2" y="346" text-anchor="middle" font-size="10" fill="#636366" font-family="ui-sans-serif, system-ui, -apple-system, BlinkMacSystemFont, 'Segoe UI', sans-serif">25-10-15</text><text x="621.6" y="346" text-anchor="middle" font-size="10" fill="#636366" font-family="ui-sans-serif, system-ui, -apple-system, BlinkMacSystemFont, 'Segoe UI', sans-serif">26-03-14</text><text x="764" y="346" text-anchor="end" font-size="10" fill="#636366" font-family="ui-sans-serif, system-ui, -apple-system, BlinkMacSystemFont, 'Segoe UI', sans-serif">26-08-12</text>
</svg>
