<?xml version="1.0" encoding="UTF-8"?>
<svg xmlns="http://www.w3.org/2000/svg" width="800" height="360" viewBox="0 0 800 360" role="img" aria-label="Star history of nicejade/wealth-tracker">
  <defs>
    <linearGradient id="area-dark" x1="0" y1="0" x2="0" y2="1">
      <stop offset="0%" stop-color="#f59e0b" stop-opacity="0.28"/>
      <stop offset="100%" stop-color="#f59e0b" stop-opacity="0"/>
    </linearGradient>
  </defs>
  <line x1="52" y1="324" x2="764" y2="324" stroke="rgba(255,255,255,0.12)" stroke-width="1" /><text x="42" y="327.5" text-anchor="end" font-size="11" fill="#a1a1aa" font-family="ui-sans-serif, system-ui, -apple-system, BlinkMacSystemFont, 'Segoe UI', sans-serif">0</text><line x1="52" y1="249" x2="764" y2="249" stroke="rgba(255,255,255,0.12)" stroke-width="1" stroke-dasharray="3 3" /><text x="42" y="252.5" text-anchor="end" font-size="11" fill="#a1a1aa" font-family="ui-sans-serif, system-ui, -apple-system, BlinkMacSystemFont, 'Segoe UI', sans-serif">250</text><line x1="52" y1="174" x2="764" y2="174" stroke="rgba(255,255,255,0.12)" stroke-width="1" stroke-dasharray="3 3" /><text x="42" y="177.5" text-anchor="end" font-size="11" fill="#a1a1aa" font-family="ui-sans-serif, system-ui, -apple-system, BlinkMacSystemFont, 'Segoe UI', sans-serif">500</text><line x1="52" y1="99" x2="764" y2="99" stroke="rgba(255,255,255,0.12)" stroke-width="1" stroke-dasharray="3 3" /><text x="42" y="102.5" text-anchor="end" font-size="11" fill="#a1a1aa" font-family="ui-sans-serif, system-ui, -apple-system, BlinkMacSystemFont, 'Segoe UI', sans-serif">750</text><line x1="52" y1="24" x2="764" y2="24" stroke="rgba(255,255,255,0.12)" stroke-width="1" stroke-dasharray="3 3" /><text x="42" y="27.5" text-anchor="end" font-size="11" fill="#a1a1aa" font-family="ui-sans-serif, system-ui, -apple-system, BlinkMacSystemFont, 'Segoe UI', sans-serif">1k</text>
  <polygon fill="url(#area-dark)" points="52,324 52,323.7 162.62,318.3 217.33,312.9 233.97,307.5 234.01,302.1 234.05,296.7 234.14,291.3 234.21,285.9 234.33,280.5 234.91,275.1 235.05,269.7 235.31,264.3 236.24,258.9 236.72,253.5 236.97,248.1 238.04,242.7 240.37,237.3 242.13,231.9 245.77,226.5 249.6,221.1 256.06,215.7 271.35,210.3 297.67,204.9 367.26,199.5 375.5,194.1 375.59,188.7 375.75,183.3 376.02,177.9 376.24,172.5 376.63,167.1 377.88,161.7 378.83,156.3 380.78,150.9 383.42,145.5 386.44,140.1 392.86,134.7 400.81,129.3 411.03,123.9 436.15,118.5 438.77,113.1 446.49,107.7 462.15,102.3 483.47,96.9 535.87,91.5 581.03,86.1 620.57,80.7 630.86,75.3 631.08,69.9 647.11,64.5 712.68,59.1 743.26,53.7 753,52.5 764,52.5 764,324"/>
  <polyline fill="none" stroke="#f59e0b" stroke-width="2.5" stroke-linecap="round" stroke-linejoin="round" points="52,323.7 162.62,318.3 217.33,312.9 233.97,307.5 234.01,302.1 234.05,296.7 234.14,291.3 234.21,285.9 234.33,280.5 234.91,275.1 235.05,269.7 235.31,264.3 236.24,258.9 236.72,253.5 236.97,248.1 238.04,242.7 240.37,237.3 242.13,231.9 245.77,226.5 249.6,221.1 256.06,215.7 271.35,210.3 297.67,204.9 367.26,199.5 375.5,194.1 375.59,188.7 375.75,183.3 376.02,177.9 376.24,172.5 376.63,167.1 377.88,161.7 378.83,156.3 380.78,150.9 383.42,145.5 386.44,140.1 392.86,134.7 400.81,129.3 411.03,123.9 436.15,118.5 438.77,113.1 446.49,107.7 462.15,102.3 483.47,96.9 535.87,91.5 581.03,86.1 620.57,80.7 630.86,75.3 631.08,69.9 647.11,64.5 712.68,59.1 743.26,53.7 753,52.5 764,52.5"/>
  <circle cx="764" cy="52.5" r="4" fill="#f59e0b" />
  <text x="52" y="346" text-anchor="start" font-size="10" fill="#a1a1aa" font-family="ui-sans-serif, system-ui, -apple-system, BlinkMacSystemFont, 'Segoe UI', sans-serif">24-07-21</text><text x="194.4" y="346" text-anchor="middle" font-size="10" fill="#a1a1aa" font-family="ui-sans-serif, system-ui, -apple-system, BlinkMacSystemFont, 'Segoe UI', sans-serif">24-12-25</text><text x="336.8" y="346" text-anchor="middle" font-size="10" fill="#a1a1aa" font-family="ui-sans-serif, system-ui, -apple-system, BlinkMacSystemFont, 'Segoe UI', sans-serif">25-05-31</text><text x="479.2" y="346" text-anchor="middle" font-size="10" fill="#a1a1aa" font-family="ui-sans-serif, system-ui, -apple-system, BlinkMacSystemFont, 'Segoe UI', sans-serif">25-11-04</text><text x="621.6" y="346" text-anchor="middle" font-size="10" fill="#a1a1aa" font-family="ui-sans-serif, system-ui, -apple-system, BlinkMacSystemFont, 'Segoe UI', sans-serif">26-04-11</text><text x="764" y="346" text-anchor="end" font-size="10" fill="#a1a1aa" font-family="ui-sans-serif, system-ui, -apple-system, BlinkMacSystemFont, 'Segoe UI', sans-serif">26-09-15</text>
</svg>
