<?xml version="1.0" encoding="UTF-8"?>
<svg xmlns="http://www.w3.org/2000/svg" width="800" height="360" viewBox="0 0 800 360" role="img" aria-label="Star history of nicejade/wealth-tracker">
  <defs>
    <linearGradient id="area-dark" x1="0" y1="0" x2="0" y2="1">
      <stop offset="0%" stop-color="#f59e0b" stop-opacity="0.28"/>
      <stop offset="100%" stop-color="#f59e0b" stop-opacity="0"/>
    </linearGradient>
  </defs>
  <line x1="52" y1="324" x2="764" y2="324" stroke="rgba(255,255,255,0.12)" stroke-width="1" /><text x="42" y="327.5" text-anchor="end" font-size="11" fill="#a1a1aa" font-family="ui-sans-serif, system-ui, -apple-system, BlinkMacSystemFont, 'Segoe UI', sans-serif">0</text><line x1="52" y1="249" x2="764" y2="249" stroke="rgba(255,255,255,0.12)" stroke-width="1" stroke-dasharray="3 3" /><text x="42" y="252.5" text-anchor="end" font-size="11" fill="#a1a1aa" font-family="ui-sans-serif, system-ui, -apple-system, BlinkMacSystemFont, 'Segoe UI', sans-serif">250</text><line x1="52" y1="174" x2="764" y2="174" stroke="rgba(255,255,255,0.12)" stroke-width="1" stroke-dasharray="3 3" /><text x="42" y="177.5" text-anchor="end" font-size="11" fill="#a1a1aa" font-family="ui-sans-serif, system-ui, -apple-system, BlinkMacSystemFont, 'Segoe UI', sans-serif">500</text><line x1="52" y1="99" x2="764" y2="99" stroke="rgba(255,255,255,0.12)" stroke-width="1" stroke-dasharray="3 3" /><text x="42" y="102.5" text-anchor="end" font-size="11" fill="#a1a1aa" font-family="ui-sans-serif, system-ui, -apple-system, BlinkMacSystemFont, 'Segoe UI', sans-serif">750</text><line x1="52" y1="24" x2="764" y2="24" stroke="rgba(255,255,255,0.12)" stroke-width="1" stroke-dasharray="3 3" /><text x="42" y="27.5" text-anchor="end" font-size="11" fill="#a1a1aa" font-family="ui-sans-serif, system-ui, -apple-system, BlinkMacSystemFont, 'Segoe UI', sans-serif">1k</text>
  <polygon fill="url(#area-dark)" points="52,324 52,323.7 169.02,318.3 226.91,312.9 244.52,307.5 244.56,302.1 244.59,296.7 244.69,291.3 244.76,285.9 244.9,280.5 245.5,275.1 245.65,269.7 245.93,264.3 246.91,258.9 247.42,253.5 247.69,248.1 248.82,242.7 251.28,237.3 253.14,231.9 257,226.5 261.05,221.1 267.88,215.7 284.06,210.3 311.9,204.9 385.53,199.5 394.24,194.1 394.34,188.7 394.51,183.3 394.79,177.9 395.03,172.5 395.44,167.1 396.75,161.7 397.76,156.3 399.82,150.9 402.61,145.5 405.81,140.1 412.6,134.7 421.02,129.3 431.83,123.9 458.4,118.5 461.18,113.1 469.34,107.7 485.91,102.3 508.46,96.9 563.9,91.5 611.68,86.1 653.5,80.7 664.39,75.3 664.62,69.9 678.75,64.5 750.69,59.1 762.66,55.8 764,55.8 764,324"/>
  <polyline fill="none" stroke="#f59e0b" stroke-width="2.5" stroke-linecap="round" stroke-linejoin="round" points="52,323.7 169.02,318.3 226.91,312.9 244.52,307.5 244.56,302.1 244.59,296.7 244.69,291.3 244.76,285.9 244.9,280.5 245.5,275.1 245.65,269.7 245.93,264.3 246.91,258.9 247.42,253.5 247.69,248.1 248.82,242.7 251.28,237.3 253.14,231.9 257,226.5 261.05,221.1 267.88,215.7 284.06,210.3 311.9,204.9 385.53,199.5 394.24,194.1 394.34,188.7 394.51,183.3 394.79,177.9 395.03,172.5 395.44,167.1 396.75,161.7 397.76,156.3 399.82,150.9 402.61,145.5 405.81,140.1 412.6,134.7 421.02,129.3 431.83,123.9 458.4,118.5 461.18,113.1 469.34,107.7 485.91,102.3 508.46,96.9 563.9,91.5 611.68,86.1 653.5,80.7 664.39,75.3 664.62,69.9 678.75,64.5 750.69,59.1 762.66,55.8 764,55.8"/>
  <circle cx="764" cy="55.8" r="4" fill="#f59e0b" />
  <text x="52" y="346" text-anchor="start" font-size="10" fill="#a1a1aa" font-family="ui-sans-serif, system-ui, -apple-system, BlinkMacSystemFont, 'Segoe UI', sans-serif">24-07-21</text><text x="194.4" y="346" text-anchor="middle" font-size="10" fill="#a1a1aa" font-family="ui-sans-serif, system-ui, -apple-system, BlinkMacSystemFont, 'Segoe UI', sans-serif">24-12-16</text><text x="336.8" y="346" text-anchor="middle" font-size="10" fill="#a1a1aa" font-family="ui-sans-serif, system-ui, -apple-system, BlinkMacSystemFont, 'Segoe UI', sans-serif">25-05-14</text><text x="479.2" y="346" text-anchor="middle" font-size="10" fill="#a1a1aa" font-family="ui-sans-serif, system-ui, -apple-system, BlinkMacSystemFont, 'Segoe UI', sans-serif">25-10-10</text><text x="621.6" y="346" text-anchor="middle" font-size="10" fill="#a1a1aa" font-family="ui-sans-serif, system-ui, -apple-system, BlinkMacSystemFont, 'Segoe UI', sans-serif">26-03-07</text><text x="764" y="346" text-anchor="end" font-size="10" fill="#a1a1aa" font-family="ui-sans-serif, system-ui, -apple-system, BlinkMacSystemFont, 'Segoe UI', sans-serif">26-08-03</text>
</svg>
