<?xml version="1.0" encoding="UTF-8"?>
<svg xmlns="http://www.w3.org/2000/svg" width="800" height="360" viewBox="0 0 800 360" role="img" aria-label="Star history of nicejade/wealth-tracker">
  <defs>
    <linearGradient id="area-light" x1="0" y1="0" x2="0" y2="1">
      <stop offset="0%" stop-color="#f59e0b" stop-opacity="0.22"/>
      <stop offset="100%" stop-color="#f59e0b" stop-opacity="0"/>
    </linearGradient>
  </defs>
  <line x1="52" y1="324" x2="764" y2="324" stroke="rgba(0,0,0,0.08)" stroke-width="1" /><text x="42" y="327.5" text-anchor="end" font-size="11" fill="#636366" font-family="ui-sans-serif, system-ui, -apple-system, BlinkMacSystemFont, 'Segoe UI', sans-serif">0</text><line x1="52" y1="249" x2="764" y2="249" stroke="rgba(0,0,0,0.08)" stroke-width="1" stroke-dasharray="3 3" /><text x="42" y="252.5" text-anchor="end" font-size="11" fill="#636366" font-family="ui-sans-serif, system-ui, -apple-system, BlinkMacSystemFont, 'Segoe UI', sans-serif">250</text><line x1="52" y1="174" x2="764" y2="174" stroke="rgba(0,0,0,0.08)" stroke-width="1" stroke-dasharray="3 3" /><text x="42" y="177.5" text-anchor="end" font-size="11" fill="#636366" font-family="ui-sans-serif, system-ui, -apple-system, BlinkMacSystemFont, 'Segoe UI', sans-serif">500</text><line x1="52" y1="99" x2="764" y2="99" stroke="rgba(0,0,0,0.08)" stroke-width="1" stroke-dasharray="3 3" /><text x="42" y="102.5" text-anchor="end" font-size="11" fill="#636366" font-family="ui-sans-serif, system-ui, -apple-system, BlinkMacSystemFont, 'Segoe UI', sans-serif">750</text><line x1="52" y1="24" x2="764" y2="24" stroke="rgba(0,0,0,0.08)" stroke-width="1" stroke-dasharray="3 3" /><text x="42" y="27.5" text-anchor="end" font-size="11" fill="#636366" font-family="ui-sans-serif, system-ui, -apple-system, BlinkMacSystemFont, 'Segoe UI', sans-serif">1k</text>
  <polygon fill="url(#area-light)" points="52,324 52,323.7 163.33,318.3 218.39,312.9 235.14,307.5 235.18,302.1 235.22,296.7 235.31,291.3 235.38,285.9 235.51,280.5 236.08,275.1 236.22,269.7 236.49,264.3 237.42,258.9 237.9,253.5 238.16,248.1 239.24,242.7 241.58,237.3 243.35,231.9 247.02,226.5 250.87,221.1 257.37,215.7 272.76,210.3 299.24,204.9 369.29,199.5 377.58,194.1 377.67,188.7 377.83,183.3 378.1,177.9 378.33,172.5 378.72,167.1 379.97,161.7 380.93,156.3 382.89,150.9 385.54,145.5 388.59,140.1 395.05,134.7 403.05,129.3 413.34,123.9 438.61,118.5 441.26,113.1 449.03,107.7 464.79,102.3 486.24,96.9 538.98,91.5 584.43,86.1 624.22,80.7 634.58,75.3 634.8,69.9 650.93,64.5 716.92,59.1 747.7,53.7 757.5,52.5 764,52.5 764,324"/>
  <polyline fill="none" stroke="#f59e0b" stroke-width="2.5" stroke-linecap="round" stroke-linejoin="round" points="52,323.7 163.33,318.3 218.39,312.9 235.14,307.5 235.18,302.1 235.22,296.7 235.31,291.3 235.38,285.9 235.51,280.5 236.08,275.1 236.22,269.7 236.49,264.3 237.42,258.9 237.9,253.5 238.16,248.1 239.24,242.7 241.58,237.3 243.35,231.9 247.02,226.5 250.87,221.1 257.37,215.7 272.76,210.3 299.24,204.9 369.29,199.5 377.58,194.1 377.67,188.7 377.83,183.3 378.1,177.9 378.33,172.5 378.72,167.1 379.97,161.7 380.93,156.3 382.89,150.9 385.54,145.5 388.59,140.1 395.05,134.7 403.05,129.3 413.34,123.9 438.61,118.5 441.26,113.1 449.03,107.7 464.79,102.3 486.24,96.9 538.98,91.5 584.43,86.1 624.22,80.7 634.58,75.3 634.8,69.9 650.93,64.5 716.92,59.1 747.7,53.7 757.5,52.5 764,52.5"/>
  <circle cx="764" cy="52.5" r="4" fill="#f59e0b" />
  <text x="52" y="346" text-anchor="start" font-size="10" fill="#636366" font-family="ui-sans-serif, system-ui, -apple-system, BlinkMacSystemFont, 'Segoe UI', sans-serif">24-07-21</text><text x="194.4" y="346" text-anchor="middle" font-size="10" fill="#636366" font-family="ui-sans-serif, system-ui, -apple-system, BlinkMacSystemFont, 'Segoe UI', sans-serif">24-12-24</text><text x="336.8" y="346" text-anchor="middle" font-size="10" fill="#636366" font-family="ui-sans-serif, system-ui, -apple-system, BlinkMacSystemFont, 'Segoe UI', sans-serif">25-05-29</text><text x="479.2" y="346" text-anchor="middle" font-size="10" fill="#636366" font-family="ui-sans-serif, system-ui, -apple-system, BlinkMacSystemFont, 'Segoe UI', sans-serif">25-11-01</text><text x="621.6" y="346" text-anchor="middle" font-size="10" fill="#636366" font-family="ui-sans-serif, system-ui, -apple-system, BlinkMacSystemFont, 'Segoe UI', sans-serif">26-04-07</text><text x="764" y="346" text-anchor="end" font-size="10" fill="#636366" font-family="ui-sans-serif, system-ui, -apple-system, BlinkMacSystemFont, 'Segoe UI', sans-serif">26-09-10</text>
</svg>
