<?xml version="1.0" encoding="UTF-8"?>
<svg xmlns="http://www.w3.org/2000/svg" width="800" height="360" viewBox="0 0 800 360" role="img" aria-label="Star history of nicejade/wealth-tracker">
  <defs>
    <linearGradient id="area-light" x1="0" y1="0" x2="0" y2="1">
      <stop offset="0%" stop-color="#f59e0b" stop-opacity="0.22"/>
      <stop offset="100%" stop-color="#f59e0b" stop-opacity="0"/>
    </linearGradient>
  </defs>
  <line x1="52" y1="324" x2="764" y2="324" stroke="rgba(0,0,0,0.08)" stroke-width="1" /><text x="42" y="327.5" text-anchor="end" font-size="11" fill="#636366" font-family="ui-sans-serif, system-ui, -apple-system, BlinkMacSystemFont, 'Segoe UI', sans-serif">0</text><line x1="52" y1="249" x2="764" y2="249" stroke="rgba(0,0,0,0.08)" stroke-width="1" stroke-dasharray="3 3" /><text x="42" y="252.5" text-anchor="end" font-size="11" fill="#636366" font-family="ui-sans-serif, system-ui, -apple-system, BlinkMacSystemFont, 'Segoe UI', sans-serif">250</text><line x1="52" y1="174" x2="764" y2="174" stroke="rgba(0,0,0,0.08)" stroke-width="1" stroke-dasharray="3 3" /><text x="42" y="177.5" text-anchor="end" font-size="11" fill="#636366" font-family="ui-sans-serif, system-ui, -apple-system, BlinkMacSystemFont, 'Segoe UI', sans-serif">500</text><line x1="52" y1="99" x2="764" y2="99" stroke="rgba(0,0,0,0.08)" stroke-width="1" stroke-dasharray="3 3" /><text x="42" y="102.5" text-anchor="end" font-size="11" fill="#636366" font-family="ui-sans-serif, system-ui, -apple-system, BlinkMacSystemFont, 'Segoe UI', sans-serif">750</text><line x1="52" y1="24" x2="764" y2="24" stroke="rgba(0,0,0,0.08)" stroke-width="1" stroke-dasharray="3 3" /><text x="42" y="27.5" text-anchor="end" font-size="11" fill="#636366" font-family="ui-sans-serif, system-ui, -apple-system, BlinkMacSystemFont, 'Segoe UI', sans-serif">1k</text>
  <polygon fill="url(#area-light)" points="52,324 52,323.7 168.1,318.3 225.53,312.9 243,307.5 243.04,302.1 243.08,296.7 243.18,291.3 243.25,285.9 243.38,280.5 243.98,275.1 244.13,269.7 244.41,264.3 245.38,258.9 245.88,253.5 246.15,248.1 247.27,242.7 249.71,237.3 251.56,231.9 255.39,226.5 259.4,221.1 266.19,215.7 282.23,210.3 309.86,204.9 382.91,199.5 391.55,194.1 391.65,188.7 391.82,183.3 392.1,177.9 392.33,172.5 392.74,167.1 394.04,161.7 395.05,156.3 397.09,150.9 399.86,145.5 403.03,140.1 409.77,134.7 418.12,129.3 428.85,123.9 455.2,118.5 457.96,113.1 466.06,107.7 482.5,102.3 504.88,96.9 559.88,91.5 607.28,86.1 648.78,80.7 659.58,75.3 659.81,69.9 676.63,64.5 745.45,59.1 761.2,55.5 764,55.5 764,324"/>
  <polyline fill="none" stroke="#f59e0b" stroke-width="2.5" stroke-linecap="round" stroke-linejoin="round" points="52,323.7 168.1,318.3 225.53,312.9 243,307.5 243.04,302.1 243.08,296.7 243.18,291.3 243.25,285.9 243.38,280.5 243.98,275.1 244.13,269.7 244.41,264.3 245.38,258.9 245.88,253.5 246.15,248.1 247.27,242.7 249.71,237.3 251.56,231.9 255.39,226.5 259.4,221.1 266.19,215.7 282.23,210.3 309.86,204.9 382.91,199.5 391.55,194.1 391.65,188.7 391.82,183.3 392.1,177.9 392.33,172.5 392.74,167.1 394.04,161.7 395.05,156.3 397.09,150.9 399.86,145.5 403.03,140.1 409.77,134.7 418.12,129.3 428.85,123.9 455.2,118.5 457.96,113.1 466.06,107.7 482.5,102.3 504.88,96.9 559.88,91.5 607.28,86.1 648.78,80.7 659.58,75.3 659.81,69.9 676.63,64.5 745.45,59.1 761.2,55.5 764,55.5"/>
  <circle cx="764" cy="55.5" r="4" fill="#f59e0b" />
  <text x="52" y="346" text-anchor="start" font-size="10" fill="#636366" font-family="ui-sans-serif, system-ui, -apple-system, BlinkMacSystemFont, 'Segoe UI', sans-serif">24-07-21</text><text x="194.4" y="346" text-anchor="middle" font-size="10" fill="#636366" font-family="ui-sans-serif, system-ui, -apple-system, BlinkMacSystemFont, 'Segoe UI', sans-serif">24-12-17</text><text x="336.8" y="346" text-anchor="middle" font-size="10" fill="#636366" font-family="ui-sans-serif, system-ui, -apple-system, BlinkMacSystemFont, 'Segoe UI', sans-serif">25-05-16</text><text x="479.2" y="346" text-anchor="middle" font-size="10" fill="#636366" font-family="ui-sans-serif, system-ui, -apple-system, BlinkMacSystemFont, 'Segoe UI', sans-serif">25-10-13</text><text x="621.6" y="346" text-anchor="middle" font-size="10" fill="#636366" font-family="ui-sans-serif, system-ui, -apple-system, BlinkMacSystemFont, 'Segoe UI', sans-serif">26-03-12</text><text x="764" y="346" text-anchor="end" font-size="10" fill="#636366" font-family="ui-sans-serif, system-ui, -apple-system, BlinkMacSystemFont, 'Segoe UI', sans-serif">26-08-09</text>
</svg>
