<?xml version="1.0" encoding="UTF-8"?>
<svg xmlns="http://www.w3.org/2000/svg" width="800" height="360" viewBox="0 0 800 360" role="img" aria-label="Star history of nicejade/wealth-tracker">
  <defs>
    <linearGradient id="area-light" x1="0" y1="0" x2="0" y2="1">
      <stop offset="0%" stop-color="#f59e0b" stop-opacity="0.22"/>
      <stop offset="100%" stop-color="#f59e0b" stop-opacity="0"/>
    </linearGradient>
  </defs>
  <line x1="52" y1="324" x2="764" y2="324" stroke="rgba(0,0,0,0.08)" stroke-width="1" /><text x="42" y="327.5" text-anchor="end" font-size="11" fill="#636366" font-family="ui-sans-serif, system-ui, -apple-system, BlinkMacSystemFont, 'Segoe UI', sans-serif">0</text><line x1="52" y1="249" x2="764" y2="249" stroke="rgba(0,0,0,0.08)" stroke-width="1" stroke-dasharray="3 3" /><text x="42" y="252.5" text-anchor="end" font-size="11" fill="#636366" font-family="ui-sans-serif, system-ui, -apple-system, BlinkMacSystemFont, 'Segoe UI', sans-serif">250</text><line x1="52" y1="174" x2="764" y2="174" stroke="rgba(0,0,0,0.08)" stroke-width="1" stroke-dasharray="3 3" /><text x="42" y="177.5" text-anchor="end" font-size="11" fill="#636366" font-family="ui-sans-serif, system-ui, -apple-system, BlinkMacSystemFont, 'Segoe UI', sans-serif">500</text><line x1="52" y1="99" x2="764" y2="99" stroke="rgba(0,0,0,0.08)" stroke-width="1" stroke-dasharray="3 3" /><text x="42" y="102.5" text-anchor="end" font-size="11" fill="#636366" font-family="ui-sans-serif, system-ui, -apple-system, BlinkMacSystemFont, 'Segoe UI', sans-serif">750</text><line x1="52" y1="24" x2="764" y2="24" stroke="rgba(0,0,0,0.08)" stroke-width="1" stroke-dasharray="3 3" /><text x="42" y="27.5" text-anchor="end" font-size="11" fill="#636366" font-family="ui-sans-serif, system-ui, -apple-system, BlinkMacSystemFont, 'Segoe UI', sans-serif">1k</text>
  <polygon fill="url(#area-light)" points="52,324 52,323.7 159.33,318 213.72,312.3 228.37,306.6 228.41,300.9 228.47,295.2 228.54,289.5 228.62,283.8 229.24,278.1 229.3,272.4 229.48,266.7 230.25,261 231.01,255.3 231.21,249.6 232.06,243.9 233.9,238.2 235.93,232.5 239.8,226.8 243.52,221.1 250.55,215.4 266.16,209.7 300.46,204 359.33,198.3 365.56,192.6 365.69,186.9 365.82,181.2 366.17,175.5 366.38,169.8 367.04,164.1 368.47,158.4 369.92,152.7 371.94,147 375.88,141.3 380.38,135.6 389.8,129.9 399.74,124.2 424.32,118.5 427.14,112.8 435.97,107.1 452.33,101.4 475.4,95.7 527.6,90 579.03,84.3 612.91,78.6 613.19,72.9 613.68,67.2 656.88,61.5 705.15,55.8 764,50.4 764,50.4 764,324"/>
  <polyline fill="none" stroke="#f59e0b" stroke-width="2.5" stroke-linecap="round" stroke-linejoin="round" points="52,323.7 159.33,318 213.72,312.3 228.37,306.6 228.41,300.9 228.47,295.2 228.54,289.5 228.62,283.8 229.24,278.1 229.3,272.4 229.48,266.7 230.25,261 231.01,255.3 231.21,249.6 232.06,243.9 233.9,238.2 235.93,232.5 239.8,226.8 243.52,221.1 250.55,215.4 266.16,209.7 300.46,204 359.33,198.3 365.56,192.6 365.69,186.9 365.82,181.2 366.17,175.5 366.38,169.8 367.04,164.1 368.47,158.4 369.92,152.7 371.94,147 375.88,141.3 380.38,135.6 389.8,129.9 399.74,124.2 424.32,118.5 427.14,112.8 435.97,107.1 452.33,101.4 475.4,95.7 527.6,90 579.03,84.3 612.91,78.6 613.19,72.9 613.68,67.2 656.88,61.5 705.15,55.8 764,50.4 764,50.4"/>
  <circle cx="764" cy="50.4" r="4" fill="#f59e0b" />
  <text x="52" y="346" text-anchor="start" font-size="10" fill="#636366" font-family="ui-sans-serif, system-ui, -apple-system, BlinkMacSystemFont, 'Segoe UI', sans-serif">24-07-21</text><text x="194.4" y="346" text-anchor="middle" font-size="10" fill="#636366" font-family="ui-sans-serif, system-ui, -apple-system, BlinkMacSystemFont, 'Segoe UI', sans-serif">24-12-30</text><text x="336.8" y="346" text-anchor="middle" font-size="10" fill="#636366" font-family="ui-sans-serif, system-ui, -apple-system, BlinkMacSystemFont, 'Segoe UI', sans-serif">25-06-10</text><text x="479.2" y="346" text-anchor="middle" font-size="10" fill="#636366" font-family="ui-sans-serif, system-ui, -apple-system, BlinkMacSystemFont, 'Segoe UI', sans-serif">25-11-19</text><text x="621.6" y="346" text-anchor="middle" font-size="10" fill="#636366" font-family="ui-sans-serif, system-ui, -apple-system, BlinkMacSystemFont, 'Segoe UI', sans-serif">26-05-01</text><text x="764" y="346" text-anchor="end" font-size="10" fill="#636366" font-family="ui-sans-serif, system-ui, -apple-system, BlinkMacSystemFont, 'Segoe UI', sans-serif">26-10-10</text>
</svg>
