<?xml version="1.0" encoding="UTF-8"?>
<svg xmlns="http://www.w3.org/2000/svg" width="800" height="360" viewBox="0 0 800 360" role="img" aria-label="Star history of nicejade/wealth-tracker">
  <defs>
    <linearGradient id="area-light" x1="0" y1="0" x2="0" y2="1">
      <stop offset="0%" stop-color="#f59e0b" stop-opacity="0.22"/>
      <stop offset="100%" stop-color="#f59e0b" stop-opacity="0"/>
    </linearGradient>
  </defs>
  <line x1="52" y1="324" x2="764" y2="324" stroke="rgba(0,0,0,0.08)" stroke-width="1" /><text x="42" y="327.5" text-anchor="end" font-size="11" fill="#636366" font-family="ui-sans-serif, system-ui, -apple-system, BlinkMacSystemFont, 'Segoe UI', sans-serif">0</text><line x1="52" y1="249" x2="764" y2="249" stroke="rgba(0,0,0,0.08)" stroke-width="1" stroke-dasharray="3 3" /><text x="42" y="252.5" text-anchor="end" font-size="11" fill="#636366" font-family="ui-sans-serif, system-ui, -apple-system, BlinkMacSystemFont, 'Segoe UI', sans-serif">250</text><line x1="52" y1="174" x2="764" y2="174" stroke="rgba(0,0,0,0.08)" stroke-width="1" stroke-dasharray="3 3" /><text x="42" y="177.5" text-anchor="end" font-size="11" fill="#636366" font-family="ui-sans-serif, system-ui, -apple-system, BlinkMacSystemFont, 'Segoe UI', sans-serif">500</text><line x1="52" y1="99" x2="764" y2="99" stroke="rgba(0,0,0,0.08)" stroke-width="1" stroke-dasharray="3 3" /><text x="42" y="102.5" text-anchor="end" font-size="11" fill="#636366" font-family="ui-sans-serif, system-ui, -apple-system, BlinkMacSystemFont, 'Segoe UI', sans-serif">750</text><line x1="52" y1="24" x2="764" y2="24" stroke="rgba(0,0,0,0.08)" stroke-width="1" stroke-dasharray="3 3" /><text x="42" y="27.5" text-anchor="end" font-size="11" fill="#636366" font-family="ui-sans-serif, system-ui, -apple-system, BlinkMacSystemFont, 'Segoe UI', sans-serif">1k</text>
  <polygon fill="url(#area-light)" points="52,324 52,323.7 160.95,318.3 214.84,312.9 231.24,307.5 231.27,302.1 231.31,296.7 231.4,291.3 231.46,285.9 231.59,280.5 232.15,275.1 232.29,269.7 232.55,264.3 233.46,258.9 233.94,253.5 234.19,248.1 235.24,242.7 237.53,237.3 239.27,231.9 242.86,226.5 246.63,221.1 252.99,215.7 268.05,210.3 293.97,204.9 362.52,199.5 370.63,194.1 370.72,188.7 370.88,183.3 371.15,177.9 371.37,172.5 371.75,167.1 372.97,161.7 373.91,156.3 375.83,150.9 378.43,145.5 381.4,140.1 387.73,134.7 395.56,129.3 405.63,123.9 430.36,118.5 432.95,113.1 440.56,107.7 455.98,102.3 476.98,96.9 528.59,91.5 573.07,86.1 612.01,80.7 622.15,75.3 622.37,69.9 638.15,64.5 702.73,59.1 732.86,53.7 763.16,51 764,51 764,324"/>
  <polyline fill="none" stroke="#f59e0b" stroke-width="2.5" stroke-linecap="round" stroke-linejoin="round" points="52,323.7 160.95,318.3 214.84,312.9 231.24,307.5 231.27,302.1 231.31,296.7 231.4,291.3 231.46,285.9 231.59,280.5 232.15,275.1 232.29,269.7 232.55,264.3 233.46,258.9 233.94,253.5 234.19,248.1 235.24,242.7 237.53,237.3 239.27,231.9 242.86,226.5 246.63,221.1 252.99,215.7 268.05,210.3 293.97,204.9 362.52,199.5 370.63,194.1 370.72,188.7 370.88,183.3 371.15,177.9 371.37,172.5 371.75,167.1 372.97,161.7 373.91,156.3 375.83,150.9 378.43,145.5 381.4,140.1 387.73,134.7 395.56,129.3 405.63,123.9 430.36,118.5 432.95,113.1 440.56,107.7 455.98,102.3 476.98,96.9 528.59,91.5 573.07,86.1 612.01,80.7 622.15,75.3 622.37,69.9 638.15,64.5 702.73,59.1 732.86,53.7 763.16,51 764,51"/>
  <circle cx="764" cy="51" r="4" fill="#f59e0b" />
  <text x="52" y="346" text-anchor="start" font-size="10" fill="#636366" font-family="ui-sans-serif, system-ui, -apple-system, BlinkMacSystemFont, 'Segoe UI', sans-serif">24-07-21</text><text x="194.4" y="346" text-anchor="middle" font-size="10" fill="#636366" font-family="ui-sans-serif, system-ui, -apple-system, BlinkMacSystemFont, 'Segoe UI', sans-serif">24-12-27</text><text x="336.8" y="346" text-anchor="middle" font-size="10" fill="#636366" font-family="ui-sans-serif, system-ui, -apple-system, BlinkMacSystemFont, 'Segoe UI', sans-serif">25-06-05</text><text x="479.2" y="346" text-anchor="middle" font-size="10" fill="#636366" font-family="ui-sans-serif, system-ui, -apple-system, BlinkMacSystemFont, 'Segoe UI', sans-serif">25-11-12</text><text x="621.6" y="346" text-anchor="middle" font-size="10" fill="#636366" font-family="ui-sans-serif, system-ui, -apple-system, BlinkMacSystemFont, 'Segoe UI', sans-serif">26-04-20</text><text x="764" y="346" text-anchor="end" font-size="10" fill="#636366" font-family="ui-sans-serif, system-ui, -apple-system, BlinkMacSystemFont, 'Segoe UI', sans-serif">26-09-27</text>
</svg>
