<?xml version="1.0" encoding="UTF-8"?>
<svg xmlns="http://www.w3.org/2000/svg" width="800" height="360" viewBox="0 0 800 360" role="img" aria-label="Star history of nicejade/wealth-tracker">
  <defs>
    <linearGradient id="area-dark" x1="0" y1="0" x2="0" y2="1">
      <stop offset="0%" stop-color="#f59e0b" stop-opacity="0.28"/>
      <stop offset="100%" stop-color="#f59e0b" stop-opacity="0"/>
    </linearGradient>
  </defs>
  <line x1="52" y1="324" x2="764" y2="324" stroke="rgba(255,255,255,0.12)" stroke-width="1" /><text x="42" y="327.5" text-anchor="end" font-size="11" fill="#a1a1aa" font-family="ui-sans-serif, system-ui, -apple-system, BlinkMacSystemFont, 'Segoe UI', sans-serif">0</text><line x1="52" y1="249" x2="764" y2="249" stroke="rgba(255,255,255,0.12)" stroke-width="1" stroke-dasharray="3 3" /><text x="42" y="252.5" text-anchor="end" font-size="11" fill="#a1a1aa" font-family="ui-sans-serif, system-ui, -apple-system, BlinkMacSystemFont, 'Segoe UI', sans-serif">250</text><line x1="52" y1="174" x2="764" y2="174" stroke="rgba(255,255,255,0.12)" stroke-width="1" stroke-dasharray="3 3" /><text x="42" y="177.5" text-anchor="end" font-size="11" fill="#a1a1aa" font-family="ui-sans-serif, system-ui, -apple-system, BlinkMacSystemFont, 'Segoe UI', sans-serif">500</text><line x1="52" y1="99" x2="764" y2="99" stroke="rgba(255,255,255,0.12)" stroke-width="1" stroke-dasharray="3 3" /><text x="42" y="102.5" text-anchor="end" font-size="11" fill="#a1a1aa" font-family="ui-sans-serif, system-ui, -apple-system, BlinkMacSystemFont, 'Segoe UI', sans-serif">750</text><line x1="52" y1="24" x2="764" y2="24" stroke="rgba(255,255,255,0.12)" stroke-width="1" stroke-dasharray="3 3" /><text x="42" y="27.5" text-anchor="end" font-size="11" fill="#a1a1aa" font-family="ui-sans-serif, system-ui, -apple-system, BlinkMacSystemFont, 'Segoe UI', sans-serif">1k</text>
  <polygon fill="url(#area-dark)" points="52,324 52,323.7 159.73,318.3 213.02,312.9 229.23,307.5 229.26,302.1 229.3,296.7 229.39,291.3 229.45,285.9 229.58,280.5 230.13,275.1 230.27,269.7 230.53,264.3 231.43,258.9 231.9,253.5 232.14,248.1 233.19,242.7 235.45,237.3 237.16,231.9 240.72,226.5 244.44,221.1 250.74,215.7 265.63,210.3 291.26,204.9 359.04,199.5 367.06,194.1 367.15,188.7 367.3,183.3 367.57,177.9 367.78,172.5 368.16,167.1 369.37,161.7 370.3,156.3 372.2,150.9 374.77,145.5 377.71,140.1 383.96,134.7 391.71,129.3 401.66,123.9 426.12,118.5 428.68,113.1 436.2,107.7 451.45,102.3 472.21,96.9 523.25,91.5 567.23,86.1 605.73,80.7 615.76,75.3 615.97,69.9 631.57,64.5 695.43,59.1 725.22,53.7 755.19,51 764,51 764,324"/>
  <polyline fill="none" stroke="#f59e0b" stroke-width="2.5" stroke-linecap="round" stroke-linejoin="round" points="52,323.7 159.73,318.3 213.02,312.9 229.23,307.5 229.26,302.1 229.3,296.7 229.39,291.3 229.45,285.9 229.58,280.5 230.13,275.1 230.27,269.7 230.53,264.3 231.43,258.9 231.9,253.5 232.14,248.1 233.19,242.7 235.45,237.3 237.16,231.9 240.72,226.5 244.44,221.1 250.74,215.7 265.63,210.3 291.26,204.9 359.04,199.5 367.06,194.1 367.15,188.7 367.3,183.3 367.57,177.9 367.78,172.5 368.16,167.1 369.37,161.7 370.3,156.3 372.2,150.9 374.77,145.5 377.71,140.1 383.96,134.7 391.71,129.3 401.66,123.9 426.12,118.5 428.68,113.1 436.2,107.7 451.45,102.3 472.21,96.9 523.25,91.5 567.23,86.1 605.73,80.7 615.76,75.3 615.97,69.9 631.57,64.5 695.43,59.1 725.22,53.7 755.19,51 764,51"/>
  <circle cx="764" cy="51" r="4" fill="#f59e0b" />
  <text x="52" y="346" text-anchor="start" font-size="10" fill="#a1a1aa" font-family="ui-sans-serif, system-ui, -apple-system, BlinkMacSystemFont, 'Segoe UI', sans-serif">24-07-21</text><text x="194.4" y="346" text-anchor="middle" font-size="10" fill="#a1a1aa" font-family="ui-sans-serif, system-ui, -apple-system, BlinkMacSystemFont, 'Segoe UI', sans-serif">24-12-29</text><text x="336.8" y="346" text-anchor="middle" font-size="10" fill="#a1a1aa" font-family="ui-sans-serif, system-ui, -apple-system, BlinkMacSystemFont, 'Segoe UI', sans-serif">25-06-09</text><text x="479.2" y="346" text-anchor="middle" font-size="10" fill="#a1a1aa" font-family="ui-sans-serif, system-ui, -apple-system, BlinkMacSystemFont, 'Segoe UI', sans-serif">25-11-17</text><text x="621.6" y="346" text-anchor="middle" font-size="10" fill="#a1a1aa" font-family="ui-sans-serif, system-ui, -apple-system, BlinkMacSystemFont, 'Segoe UI', sans-serif">26-04-28</text><text x="764" y="346" text-anchor="end" font-size="10" fill="#a1a1aa" font-family="ui-sans-serif, system-ui, -apple-system, BlinkMacSystemFont, 'Segoe UI', sans-serif">26-10-06</text>
</svg>
