<?xml version="1.0" encoding="UTF-8"?>
<svg xmlns="http://www.w3.org/2000/svg" width="800" height="360" viewBox="0 0 800 360" role="img" aria-label="Star history of nicejade/wealth-tracker">
  <defs>
    <linearGradient id="area-dark" x1="0" y1="0" x2="0" y2="1">
      <stop offset="0%" stop-color="#f59e0b" stop-opacity="0.28"/>
      <stop offset="100%" stop-color="#f59e0b" stop-opacity="0"/>
    </linearGradient>
  </defs>
  <line x1="52" y1="324" x2="764" y2="324" stroke="rgba(255,255,255,0.12)" stroke-width="1" /><text x="42" y="327.5" text-anchor="end" font-size="11" fill="#a1a1aa" font-family="ui-sans-serif, system-ui, -apple-system, BlinkMacSystemFont, 'Segoe UI', sans-serif">0</text><line x1="52" y1="249" x2="764" y2="249" stroke="rgba(255,255,255,0.12)" stroke-width="1" stroke-dasharray="3 3" /><text x="42" y="252.5" text-anchor="end" font-size="11" fill="#a1a1aa" font-family="ui-sans-serif, system-ui, -apple-system, BlinkMacSystemFont, 'Segoe UI', sans-serif">250</text><line x1="52" y1="174" x2="764" y2="174" stroke="rgba(255,255,255,0.12)" stroke-width="1" stroke-dasharray="3 3" /><text x="42" y="177.5" text-anchor="end" font-size="11" fill="#a1a1aa" font-family="ui-sans-serif, system-ui, -apple-system, BlinkMacSystemFont, 'Segoe UI', sans-serif">500</text><line x1="52" y1="99" x2="764" y2="99" stroke="rgba(255,255,255,0.12)" stroke-width="1" stroke-dasharray="3 3" /><text x="42" y="102.5" text-anchor="end" font-size="11" fill="#a1a1aa" font-family="ui-sans-serif, system-ui, -apple-system, BlinkMacSystemFont, 'Segoe UI', sans-serif">750</text><line x1="52" y1="24" x2="764" y2="24" stroke="rgba(255,255,255,0.12)" stroke-width="1" stroke-dasharray="3 3" /><text x="42" y="27.5" text-anchor="end" font-size="11" fill="#a1a1aa" font-family="ui-sans-serif, system-ui, -apple-system, BlinkMacSystemFont, 'Segoe UI', sans-serif">1k</text>
  <polygon fill="url(#area-dark)" points="52,324 52,323.7 163.18,318.3 218.18,312.9 234.91,307.5 234.95,302.1 234.98,296.7 235.08,291.3 235.14,285.9 235.27,280.5 235.85,275.1 235.99,269.7 236.25,264.3 237.18,258.9 237.67,253.5 237.92,248.1 239,242.7 241.34,237.3 243.1,231.9 246.77,226.5 250.62,221.1 257.11,215.7 272.48,210.3 298.93,204.9 368.88,199.5 377.16,194.1 377.26,188.7 377.42,183.3 377.69,177.9 377.91,172.5 378.3,167.1 379.55,161.7 380.51,156.3 382.47,150.9 385.12,145.5 388.15,140.1 394.61,134.7 402.6,129.3 412.88,123.9 438.12,118.5 440.76,113.1 448.52,107.7 464.26,102.3 485.69,96.9 538.36,91.5 583.75,86.1 623.49,80.7 633.84,75.3 634.06,69.9 650.16,64.5 716.07,59.1 746.81,53.7 756.6,52.5 764,52.5 764,324"/>
  <polyline fill="none" stroke="#f59e0b" stroke-width="2.5" stroke-linecap="round" stroke-linejoin="round" points="52,323.7 163.18,318.3 218.18,312.9 234.91,307.5 234.95,302.1 234.98,296.7 235.08,291.3 235.14,285.9 235.27,280.5 235.85,275.1 235.99,269.7 236.25,264.3 237.18,258.9 237.67,253.5 237.92,248.1 239,242.7 241.34,237.3 243.1,231.9 246.77,226.5 250.62,221.1 257.11,215.7 272.48,210.3 298.93,204.9 368.88,199.5 377.16,194.1 377.26,188.7 377.42,183.3 377.69,177.9 377.91,172.5 378.3,167.1 379.55,161.7 380.51,156.3 382.47,150.9 385.12,145.5 388.15,140.1 394.61,134.7 402.6,129.3 412.88,123.9 438.12,118.5 440.76,113.1 448.52,107.7 464.26,102.3 485.69,96.9 538.36,91.5 583.75,86.1 623.49,80.7 633.84,75.3 634.06,69.9 650.16,64.5 716.07,59.1 746.81,53.7 756.6,52.5 764,52.5"/>
  <circle cx="764" cy="52.5" r="4" fill="#f59e0b" />
  <text x="52" y="346" text-anchor="start" font-size="10" fill="#a1a1aa" font-family="ui-sans-serif, system-ui, -apple-system, BlinkMacSystemFont, 'Segoe UI', sans-serif">24-07-21</text><text x="194.4" y="346" text-anchor="middle" font-size="10" fill="#a1a1aa" font-family="ui-sans-serif, system-ui, -apple-system, BlinkMacSystemFont, 'Segoe UI', sans-serif">24-12-24</text><text x="336.8" y="346" text-anchor="middle" font-size="10" fill="#a1a1aa" font-family="ui-sans-serif, system-ui, -apple-system, BlinkMacSystemFont, 'Segoe UI', sans-serif">25-05-30</text><text x="479.2" y="346" text-anchor="middle" font-size="10" fill="#a1a1aa" font-family="ui-sans-serif, system-ui, -apple-system, BlinkMacSystemFont, 'Segoe UI', sans-serif">25-11-02</text><text x="621.6" y="346" text-anchor="middle" font-size="10" fill="#a1a1aa" font-family="ui-sans-serif, system-ui, -apple-system, BlinkMacSystemFont, 'Segoe UI', sans-serif">26-04-07</text><text x="764" y="346" text-anchor="end" font-size="10" fill="#a1a1aa" font-family="ui-sans-serif, system-ui, -apple-system, BlinkMacSystemFont, 'Segoe UI', sans-serif">26-09-11</text>
</svg>
