<?xml version="1.0" encoding="UTF-8"?>
<svg xmlns="http://www.w3.org/2000/svg" width="800" height="360" viewBox="0 0 800 360" role="img" aria-label="Star history of nicejade/wealth-tracker">
  <defs>
    <linearGradient id="area-dark" x1="0" y1="0" x2="0" y2="1">
      <stop offset="0%" stop-color="#f59e0b" stop-opacity="0.28"/>
      <stop offset="100%" stop-color="#f59e0b" stop-opacity="0"/>
    </linearGradient>
  </defs>
  <line x1="52" y1="324" x2="764" y2="324" stroke="rgba(255,255,255,0.12)" stroke-width="1" /><text x="42" y="327.5" text-anchor="end" font-size="11" fill="#a1a1aa" font-family="ui-sans-serif, system-ui, -apple-system, BlinkMacSystemFont, 'Segoe UI', sans-serif">0</text><line x1="52" y1="249" x2="764" y2="249" stroke="rgba(255,255,255,0.12)" stroke-width="1" stroke-dasharray="3 3" /><text x="42" y="252.5" text-anchor="end" font-size="11" fill="#a1a1aa" font-family="ui-sans-serif, system-ui, -apple-system, BlinkMacSystemFont, 'Segoe UI', sans-serif">250</text><line x1="52" y1="174" x2="764" y2="174" stroke="rgba(255,255,255,0.12)" stroke-width="1" stroke-dasharray="3 3" /><text x="42" y="177.5" text-anchor="end" font-size="11" fill="#a1a1aa" font-family="ui-sans-serif, system-ui, -apple-system, BlinkMacSystemFont, 'Segoe UI', sans-serif">500</text><line x1="52" y1="99" x2="764" y2="99" stroke="rgba(255,255,255,0.12)" stroke-width="1" stroke-dasharray="3 3" /><text x="42" y="102.5" text-anchor="end" font-size="11" fill="#a1a1aa" font-family="ui-sans-serif, system-ui, -apple-system, BlinkMacSystemFont, 'Segoe UI', sans-serif">750</text><line x1="52" y1="24" x2="764" y2="24" stroke="rgba(255,255,255,0.12)" stroke-width="1" stroke-dasharray="3 3" /><text x="42" y="27.5" text-anchor="end" font-size="11" fill="#a1a1aa" font-family="ui-sans-serif, system-ui, -apple-system, BlinkMacSystemFont, 'Segoe UI', sans-serif">1k</text>
  <polygon fill="url(#area-dark)" points="52,324 52,323.7 159.33,318.3 212.42,312.9 228.57,307.5 228.61,302.1 228.64,296.7 228.73,291.3 228.79,285.9 228.92,280.5 229.47,275.1 229.61,269.7 229.87,264.3 230.76,258.9 231.23,253.5 231.48,248.1 232.52,242.7 234.78,237.3 236.48,231.9 240.02,226.5 243.73,221.1 250,215.7 264.84,210.3 290.37,204.9 357.9,199.5 365.89,194.1 365.99,188.7 366.14,183.3 366.4,177.9 366.62,172.5 366.99,167.1 368.2,161.7 369.13,156.3 371.02,150.9 373.57,145.5 376.51,140.1 382.73,134.7 390.45,129.3 400.37,123.9 424.74,118.5 427.29,113.1 434.78,107.7 449.97,102.3 470.66,96.9 521.51,91.5 565.33,86.1 603.68,80.7 613.67,75.3 613.89,69.9 629.43,64.5 693.06,59.1 722.73,53.7 763.26,50.7 764,50.7 764,324"/>
  <polyline fill="none" stroke="#f59e0b" stroke-width="2.5" stroke-linecap="round" stroke-linejoin="round" points="52,323.7 159.33,318.3 212.42,312.9 228.57,307.5 228.61,302.1 228.64,296.7 228.73,291.3 228.79,285.9 228.92,280.5 229.47,275.1 229.61,269.7 229.87,264.3 230.76,258.9 231.23,253.5 231.48,248.1 232.52,242.7 234.78,237.3 236.48,231.9 240.02,226.5 243.73,221.1 250,215.7 264.84,210.3 290.37,204.9 357.9,199.5 365.89,194.1 365.99,188.7 366.14,183.3 366.4,177.9 366.62,172.5 366.99,167.1 368.2,161.7 369.13,156.3 371.02,150.9 373.57,145.5 376.51,140.1 382.73,134.7 390.45,129.3 400.37,123.9 424.74,118.5 427.29,113.1 434.78,107.7 449.97,102.3 470.66,96.9 521.51,91.5 565.33,86.1 603.68,80.7 613.67,75.3 613.89,69.9 629.43,64.5 693.06,59.1 722.73,53.7 763.26,50.7 764,50.7"/>
  <circle cx="764" cy="50.7" r="4" fill="#f59e0b" />
  <text x="52" y="346" text-anchor="start" font-size="10" fill="#a1a1aa" font-family="ui-sans-serif, system-ui, -apple-system, BlinkMacSystemFont, 'Segoe UI', sans-serif">24-07-21</text><text x="194.4" y="346" text-anchor="middle" font-size="10" fill="#a1a1aa" font-family="ui-sans-serif, system-ui, -apple-system, BlinkMacSystemFont, 'Segoe UI', sans-serif">24-12-30</text><text x="336.8" y="346" text-anchor="middle" font-size="10" fill="#a1a1aa" font-family="ui-sans-serif, system-ui, -apple-system, BlinkMacSystemFont, 'Segoe UI', sans-serif">25-06-10</text><text x="479.2" y="346" text-anchor="middle" font-size="10" fill="#a1a1aa" font-family="ui-sans-serif, system-ui, -apple-system, BlinkMacSystemFont, 'Segoe UI', sans-serif">25-11-19</text><text x="621.6" y="346" text-anchor="middle" font-size="10" fill="#a1a1aa" font-family="ui-sans-serif, system-ui, -apple-system, BlinkMacSystemFont, 'Segoe UI', sans-serif">26-04-30</text><text x="764" y="346" text-anchor="end" font-size="10" fill="#a1a1aa" font-family="ui-sans-serif, system-ui, -apple-system, BlinkMacSystemFont, 'Segoe UI', sans-serif">26-10-09</text>
</svg>
