<?xml version="1.0" encoding="UTF-8"?>
<!DOCTYPE svg PUBLIC "-//W3C//DTD SVG 1.1//EN" "http://www.w3.org/Graphics/SVG/1.1/DTD/svg11.dtd">
<svg xmlns="http://www.w3.org/2000/svg" version="1.1" width="512px" height="512px" style="shape-rendering:geometricPrecision; text-rendering:geometricPrecision; image-rendering:optimizeQuality; fill-rule:evenodd; clip-rule:evenodd" xmlns:xlink="http://www.w3.org/1999/xlink">
<g><path style="opacity:0.989" fill="#56b2fe" d="M 495.5,44.5 C 429.636,73.5943 366.302,107.094 305.5,145C 286.223,157.944 267.223,171.278 248.5,185C 242.446,185.726 237.612,183.559 234,178.5C 222.118,157.622 207.618,138.789 190.5,122C 188.06,120.697 185.56,119.53 183,118.5C 167.164,125.5 151.997,133.667 137.5,143C 97.2838,169.39 56.9504,195.556 16.5,221.5C 12.3516,216.828 12.6849,212.328 17.5,208C 75.8888,165.945 134.555,124.278 193.5,83C 204.13,79.37 213.296,81.5367 221,89.5C 230.589,108.346 239.923,127.346 249,146.5C 250.313,147.573 251.813,148.24 253.5,148.5C 300.348,119.324 346.681,89.3236 392.5,58.5C 386.037,55.5115 379.37,53.0115 372.5,51C 364.56,45.8407 362.726,39.0073 367,30.5C 368.731,28.3834 370.898,26.8834 373.5,26C 403.814,22.1874 434.147,18.5207 464.5,15C 488.161,11.165 498.494,20.9983 495.5,44.5 Z"/></g>
<g><path style="opacity:1" fill="#5094ff" d="M 495.5,44.5 C 482.014,74.8073 468.514,105.141 455,135.5C 447.694,143.345 440.361,143.345 433,135.5C 431.207,126.631 430.207,117.631 430,108.5C 371.418,142.541 312.918,176.707 254.5,211C 247.302,213.895 239.969,214.228 232.5,212C 229.098,210.6 226.264,208.433 224,205.5C 210.333,183.167 196.667,160.833 183,138.5C 130.739,167.048 78.2386,195.215 25.5,223C 22.1368,223.927 19.1368,223.427 16.5,221.5C 56.9504,195.556 97.2838,169.39 137.5,143C 151.997,133.667 167.164,125.5 183,118.5C 185.56,119.53 188.06,120.697 190.5,122C 207.618,138.789 222.118,157.622 234,178.5C 237.612,183.559 242.446,185.726 248.5,185C 267.223,171.278 286.223,157.944 305.5,145C 366.302,107.094 429.636,73.5943 495.5,44.5 Z"/></g>
<g><path style="opacity:1" fill="#f5f9ff" d="M 368.5,126.5 C 369.239,126.369 369.906,126.536 370.5,127C 353.522,140.161 335.522,151.828 316.5,162C 308.407,166.554 300.073,170.221 291.5,173C 315.014,153.996 340.681,138.496 368.5,126.5 Z"/></g>
<g><path style="opacity:0.994" fill="#ffd06c" d="M 275.5,230.5 C 272.862,280.973 246.362,306.973 196,308.5C 189.153,308.327 182.319,307.993 175.5,307.5C 175.5,309.167 175.5,310.833 175.5,312.5C 174.362,309.696 174.195,306.696 175,303.5C 179,282.167 183,260.833 187,239.5C 188.061,236.438 189.894,233.938 192.5,232C 220.078,230.517 247.745,230.017 275.5,230.5 Z"/></g>
<g><path style="opacity:0.991" fill="#f9a83c" d="M 278.5,230.5 C 291.171,230.333 303.838,230.5 316.5,231C 322.334,234.661 325.334,239.994 325.5,247C 329.425,267.29 333.091,287.623 336.5,308C 336.441,312.955 334.441,316.788 330.5,319.5C 318.167,319.5 305.833,319.5 293.5,319.5C 293.5,319.167 293.5,318.833 293.5,318.5C 299.083,315.076 300.916,310.076 299,303.5C 295.107,282.477 291.107,261.477 287,240.5C 285.739,235.745 282.905,232.412 278.5,230.5 Z"/></g>
<g><path style="opacity:1" fill="#fdbc20" d="M 275.5,230.5 C 276.5,230.5 277.5,230.5 278.5,230.5C 282.905,232.412 285.739,235.745 287,240.5C 291.107,261.477 295.107,282.477 299,303.5C 300.916,310.076 299.083,315.076 293.5,318.5C 255.833,318.5 218.167,318.5 180.5,318.5C 177.438,317.732 175.772,315.732 175.5,312.5C 175.5,310.833 175.5,309.167 175.5,307.5C 182.319,307.993 189.153,308.327 196,308.5C 246.362,306.973 272.862,280.973 275.5,230.5 Z"/></g>
<g><path style="opacity:1" fill="#fffcf6" d="M 239.5,237.5 C 247.84,237.334 256.173,237.5 264.5,238C 266.952,238.29 269.285,238.956 271.5,240C 257.843,241.924 244.177,241.924 230.5,240C 233.5,238.926 236.5,238.093 239.5,237.5 Z"/></g>
<g><path style="opacity:1" fill="#fffdf8" d="M 208.5,252.5 C 211.451,257.652 215.118,262.485 219.5,267C 214.603,270.274 211.27,274.774 209.5,280.5C 207.011,275.527 204.011,270.86 200.5,266.5C 205.23,263.042 207.897,258.375 208.5,252.5 Z"/></g>
<g><path style="opacity:0.607" fill="#fcbe3f" d="M 180.5,319.5 C 180.5,319.167 180.5,318.833 180.5,318.5C 218.167,318.5 255.833,318.5 293.5,318.5C 293.5,318.833 293.5,319.167 293.5,319.5C 287.167,319.5 280.833,319.5 274.5,319.5C 261.833,319.5 249.167,319.5 236.5,319.5C 223.989,319.171 211.655,319.505 199.5,320.5C 198.85,320.196 198.183,319.863 197.5,319.5C 196.828,320.949 196.161,322.282 195.5,323.5C 195.5,322.167 195.5,320.833 195.5,319.5C 190.5,319.5 185.5,319.5 180.5,319.5 Z"/></g>
<g><path style="opacity:0.995" fill="#ffd06c" d="M 180.5,319.5 C 185.5,319.5 190.5,319.5 195.5,319.5C 195.5,320.833 195.5,322.167 195.5,323.5C 192.906,365.568 170.906,390.068 129.5,397C 118.148,397.69 106.815,397.523 95.5,396.5C 95.5,398.5 95.5,400.5 95.5,402.5C 94.3622,399.696 94.1955,396.696 95,393.5C 98.7757,370.288 103.442,347.288 109,324.5C 110.5,323 112,321.5 113.5,320C 135.831,319.5 158.164,319.333 180.5,319.5 Z"/></g>
<g><path style="opacity:0.993" fill="#f9a83d" d="M 199.5,320.5 C 211.655,319.505 223.989,319.171 236.5,319.5C 240.457,322.054 242.957,325.721 244,330.5C 247.5,349.333 251,368.167 254.5,387C 254.684,388.376 255.351,389.209 256.5,389.5C 255.631,391.717 255.298,394.05 255.5,396.5C 255.5,398.5 255.5,400.5 255.5,402.5C 254.197,404.142 252.864,405.809 251.5,407.5C 241.833,407.5 232.167,407.5 222.5,407.5C 220.5,406.167 218.833,404.5 217.5,402.5C 218.222,402.082 218.722,401.416 219,400.5C 219.667,397.5 219.667,394.5 219,391.5C 215.333,371.833 211.667,352.167 208,332.5C 207.344,326.822 204.511,322.822 199.5,320.5 Z"/></g>
<g><path style="opacity:0.995" fill="#ffd06c" d="M 274.5,319.5 C 280.833,319.5 287.167,319.5 293.5,319.5C 305.833,319.5 318.167,319.5 330.5,319.5C 339.167,319.5 347.833,319.5 356.5,319.5C 352.881,370.289 325.714,396.289 275,397.5C 268.486,397.313 261.986,396.98 255.5,396.5C 255.298,394.05 255.631,391.717 256.5,389.5C 259.675,369.788 263.175,350.122 267,330.5C 268.043,325.721 270.543,322.054 274.5,319.5 Z"/></g>
<g><path style="opacity:0.991" fill="#f9a83c" d="M 359.5,319.5 C 372.171,319.333 384.838,319.5 397.5,320C 401.58,322.312 404.08,325.812 405,330.5C 409.167,352.667 413.333,374.833 417.5,397C 417.021,401.123 415.354,404.623 412.5,407.5C 399.989,407.829 387.655,407.495 375.5,406.5C 378.921,403.932 380.254,400.432 379.5,396C 376.151,372.256 371.651,348.756 366,325.5C 363.937,323.266 361.771,321.266 359.5,319.5 Z"/></g>
<g><path style="opacity:1" fill="#febc20" d="M 199.5,320.5 C 204.511,322.822 207.344,326.822 208,332.5C 211.667,352.167 215.333,371.833 219,391.5C 219.667,394.5 219.667,397.5 219,400.5C 218.722,401.416 218.222,402.082 217.5,402.5C 215.649,399.622 213.982,396.622 212.5,393.5C 211.611,396.279 210.444,398.945 209,401.5C 206.96,403.37 205.127,405.37 203.5,407.5C 203.167,407.5 202.833,407.5 202.5,407.5C 167.833,407.5 133.167,407.5 98.5,407.5C 97.075,406.078 96.075,404.411 95.5,402.5C 95.5,400.5 95.5,398.5 95.5,396.5C 106.815,397.523 118.148,397.69 129.5,397C 170.906,390.068 192.906,365.568 195.5,323.5C 196.161,322.282 196.828,320.949 197.5,319.5C 198.183,319.863 198.85,320.196 199.5,320.5 Z"/></g>
<g><path style="opacity:1" fill="#fdbc20" d="M 356.5,319.5 C 357.5,319.5 358.5,319.5 359.5,319.5C 361.771,321.266 363.937,323.266 366,325.5C 371.651,348.756 376.151,372.256 379.5,396C 380.254,400.432 378.921,403.932 375.5,406.5C 336.906,407.494 298.239,407.827 259.5,407.5C 258.136,405.809 256.803,404.142 255.5,402.5C 255.5,400.5 255.5,398.5 255.5,396.5C 261.986,396.98 268.486,397.313 275,397.5C 325.714,396.289 352.881,370.289 356.5,319.5 Z"/></g>
<g><path style="opacity:1" fill="#fffbf5" d="M 156.5,326.5 C 166.172,326.334 175.839,326.5 185.5,327C 187.577,327.192 189.577,327.692 191.5,328.5C 180.248,330.458 168.915,330.958 157.5,330C 151.458,329.361 151.125,328.195 156.5,326.5 Z"/></g>
<g><path style="opacity:1" fill="#fffbf4" d="M 316.5,326.5 C 325.839,326.334 335.173,326.5 344.5,327C 352.197,328.251 351.863,329.251 343.5,330C 334.5,330.667 325.5,330.667 316.5,330C 308.816,329.052 308.816,327.885 316.5,326.5 Z"/></g>
<g><path style="opacity:1" fill="#fffdfa" d="M 217.5,402.5 C 218.833,404.5 220.5,406.167 222.5,407.5C 222.5,407.833 222.5,408.167 222.5,408.5C 217.513,411.433 214.18,415.766 212.5,421.5C 210.271,416.284 207.271,411.618 203.5,407.5C 205.127,405.37 206.96,403.37 209,401.5C 210.444,398.945 211.611,396.279 212.5,393.5C 213.982,396.622 215.649,399.622 217.5,402.5 Z"/></g>
<g><path style="opacity:0.188" fill="#fdbb42" d="M 80.5,407.5 C 86.5,407.5 92.5,407.5 98.5,407.5C 133.167,407.5 167.833,407.5 202.5,407.5C 199.713,408.477 196.713,408.81 193.5,408.5C 181.322,408.172 169.322,408.505 157.5,409.5C 144.735,408.179 132.069,408.179 119.5,409.5C 118.292,408.766 116.959,408.433 115.5,408.5C 103.655,408.828 91.988,408.495 80.5,407.5 Z"/></g>
<g><path style="opacity:0.188" fill="#febc49" d="M 375.5,406.5 C 387.655,407.495 399.989,407.829 412.5,407.5C 420.833,407.5 429.167,407.5 437.5,407.5C 437.5,407.833 437.5,408.167 437.5,408.5C 437.167,408.5 436.833,408.5 436.5,408.5C 409.167,408.5 381.833,408.5 354.5,408.5C 342.167,408.5 329.833,408.5 317.5,408.5C 304.656,408.171 291.989,408.505 279.5,409.5C 278.292,408.766 276.959,408.433 275.5,408.5C 257.833,408.5 240.167,408.5 222.5,408.5C 222.5,408.167 222.5,407.833 222.5,407.5C 232.167,407.5 241.833,407.5 251.5,407.5C 254.167,407.5 256.833,407.5 259.5,407.5C 298.239,407.827 336.906,407.494 375.5,406.5 Z"/></g>
<g><path style="opacity:0.984" fill="#f9a83c" d="M 437.5,408.5 C 437.5,408.167 437.5,407.833 437.5,407.5C 449.838,407.333 462.171,407.5 474.5,408C 480.41,409.579 483.91,413.412 485,419.5C 488.559,439.187 492.226,458.853 496,478.5C 496.667,482.833 496.667,487.167 496,491.5C 495.215,493.286 494.049,494.786 492.5,496C 480.171,496.5 467.838,496.667 455.5,496.5C 458.995,493.531 460.662,489.698 460.5,485C 456.721,463.827 452.888,442.66 449,421.5C 448.099,414.439 444.266,410.106 437.5,408.5 Z"/></g>
<g><path style="opacity:0.994" fill="#ffd06c" d="M 80.5,407.5 C 91.988,408.495 103.655,408.828 115.5,408.5C 111.782,459.72 84.2817,485.72 33,486.5C 26.8202,486.297 20.6535,485.963 14.5,485.5C 18.0065,463.462 21.8399,441.462 26,419.5C 27.0901,413.412 30.5901,409.579 36.5,408C 51.1629,407.5 65.8295,407.333 80.5,407.5 Z"/></g>
<g><path style="opacity:1" fill="#febc20" d="M 115.5,408.5 C 116.959,408.433 118.292,408.766 119.5,409.5C 123.255,411.772 125.755,415.106 127,419.5C 130.667,439.167 134.333,458.833 138,478.5C 138.667,482.833 138.667,487.167 138,491.5C 136.975,493.687 135.475,495.354 133.5,496.5C 95.1652,496.667 56.8319,496.5 18.5,496C 15.0708,493.012 13.7374,489.512 14.5,485.5C 20.6535,485.963 26.8202,486.297 33,486.5C 84.2817,485.72 111.782,459.72 115.5,408.5 Z"/></g>
<g><path style="opacity:0.996" fill="#f9a83d" d="M 119.5,409.5 C 132.069,408.179 144.735,408.179 157.5,409.5C 160.994,411.5 163.16,414.5 164,418.5C 167.54,438.361 171.373,458.028 175.5,477.5C 175.5,480.167 175.5,482.833 175.5,485.5C 175.5,487.5 175.5,489.5 175.5,491.5C 174.404,493.103 173.07,494.603 171.5,496C 158.838,496.5 146.171,496.667 133.5,496.5C 135.475,495.354 136.975,493.687 138,491.5C 138.667,487.167 138.667,482.833 138,478.5C 134.333,458.833 130.667,439.167 127,419.5C 125.755,415.106 123.255,411.772 119.5,409.5 Z"/></g>
<g><path style="opacity:0.995" fill="#ffd06c" d="M 202.5,407.5 C 202.833,407.5 203.167,407.5 203.5,407.5C 207.271,411.618 210.271,416.284 212.5,421.5C 214.18,415.766 217.513,411.433 222.5,408.5C 240.167,408.5 257.833,408.5 275.5,408.5C 275.81,411.713 275.477,414.713 274.5,417.5C 271.857,447.68 256.857,468.847 229.5,481C 211.862,486.477 193.862,487.977 175.5,485.5C 175.5,482.833 175.5,480.167 175.5,477.5C 179.265,457.505 183.099,437.505 187,417.5C 188.211,413.721 190.377,410.721 193.5,408.5C 196.713,408.81 199.713,408.477 202.5,407.5 Z"/></g>
<g><path style="opacity:1" fill="#fdbc20" d="M 275.5,408.5 C 276.959,408.433 278.292,408.766 279.5,409.5C 283.389,411.243 285.889,414.243 287,418.5C 292.174,442.027 296.174,465.693 299,489.5C 298.096,492.233 296.596,494.567 294.5,496.5C 256.165,496.667 217.832,496.5 179.5,496C 177.356,495.208 176.023,493.708 175.5,491.5C 175.5,489.5 175.5,487.5 175.5,485.5C 193.862,487.977 211.862,486.477 229.5,481C 256.857,468.847 271.857,447.68 274.5,417.5C 275.477,414.713 275.81,411.713 275.5,408.5 Z"/></g>
<g><path style="opacity:0.991" fill="#f9a83c" d="M 279.5,409.5 C 291.989,408.505 304.656,408.171 317.5,408.5C 320.623,410.721 322.789,413.721 324,417.5C 328.266,438.432 332.1,459.432 335.5,480.5C 335.695,483.956 335.695,487.622 335.5,491.5C 334.977,493.708 333.644,495.208 331.5,496C 319.171,496.5 306.838,496.667 294.5,496.5C 296.596,494.567 298.096,492.233 299,489.5C 296.174,465.693 292.174,442.027 287,418.5C 285.889,414.243 283.389,411.243 279.5,409.5 Z"/></g>
<g><path style="opacity:0.995" fill="#ffd06c" d="M 354.5,408.5 C 381.833,408.5 409.167,408.5 436.5,408.5C 436.034,429.068 429.534,447.402 417,463.5C 404.24,476.462 388.74,483.962 370.5,486C 359.145,486.717 347.811,486.551 336.5,485.5C 336.5,487.5 336.5,489.5 336.5,491.5C 336.167,491.5 335.833,491.5 335.5,491.5C 335.695,487.622 335.695,483.956 335.5,480.5C 340.089,459.722 344.255,438.722 348,417.5C 349.643,414.039 351.81,411.039 354.5,408.5 Z"/></g>
<g><path style="opacity:1" fill="#fdbc20" d="M 436.5,408.5 C 436.833,408.5 437.167,408.5 437.5,408.5C 444.266,410.106 448.099,414.439 449,421.5C 452.888,442.66 456.721,463.827 460.5,485C 460.662,489.698 458.995,493.531 455.5,496.5C 416.832,496.667 378.165,496.5 339.5,496C 337.859,494.871 336.859,493.371 336.5,491.5C 336.5,489.5 336.5,487.5 336.5,485.5C 347.811,486.551 359.145,486.717 370.5,486C 388.74,483.962 404.24,476.462 417,463.5C 429.534,447.402 436.034,429.068 436.5,408.5 Z"/></g>
<g><path style="opacity:1" fill="#fffbf4" d="M 78.5,415.5 C 89.5398,415.215 100.54,415.715 111.5,417C 109.038,418.216 106.371,418.882 103.5,419C 94.5,419.667 85.5,419.667 76.5,419C 73.9568,418.86 71.6234,418.194 69.5,417C 72.6946,416.819 75.6946,416.319 78.5,415.5 Z"/></g>
<g><path style="opacity:1" fill="#fffbf3" d="M 274.5,417.5 C 259.717,420.316 245.05,420.149 230.5,417C 245.345,414.871 260.012,415.038 274.5,417.5 Z"/></g>
<g><path style="opacity:1" fill="#fffbf5" d="M 397.5,415.5 C 408.877,415.174 420.21,415.674 431.5,417C 430.051,418.117 428.384,418.784 426.5,419C 417.167,419.667 407.833,419.667 398.5,419C 391.28,418.027 390.947,416.861 397.5,415.5 Z"/></g>
<g><path style="opacity:1" fill="#fffdf9" d="M 48.5,430.5 C 51.2956,435.375 54.6289,440.042 58.5,444.5C 53.9743,448.226 50.9743,452.892 49.5,458.5C 47.1358,453.091 43.8025,448.424 39.5,444.5C 44.5194,441.127 47.5194,436.46 48.5,430.5 Z"/></g>
<g><path style="opacity:1" fill="#fffdfa" d="M 369.5,430.5 C 370.376,430.369 371.043,430.702 371.5,431.5C 373.414,436.335 376.081,440.669 379.5,444.5C 375.486,448.53 372.486,453.197 370.5,458.5C 368.501,453.163 365.501,448.496 361.5,444.5C 363.149,442.35 364.982,440.35 367,438.5C 368.707,436.091 369.54,433.425 369.5,430.5 Z"/></g>
</svg>
